<?xml version="1.0" encoding="UTF-8" standalone="no"?>
<!-- Created with Inkscape (http://www.inkscape.org/) -->

<svg
   xmlns:dc="http://purl.org/dc/elements/1.1/"
   xmlns:cc="http://creativecommons.org/ns#"
   xmlns:rdf="http://www.w3.org/1999/02/22-rdf-syntax-ns#"
   xmlns:svg="http://www.w3.org/2000/svg"
   xmlns="http://www.w3.org/2000/svg"
   xmlns:xlink="http://www.w3.org/1999/xlink"
   xmlns:sodipodi="http://sodipodi.sourceforge.net/DTD/sodipodi-0.dtd"
   xmlns:inkscape="http://www.inkscape.org/namespaces/inkscape"
   width="850.39368"
   height="496.06299"
   id="svg3215"
   sodipodi:version="0.32"
   inkscape:version="0.48.0 r9654"
   version="1.0"
   inkscape:export-filename="D:\sandbox\fbfinale\finale\finale\resources\graphics-uncompress\level2\bg.png"
   inkscape:export-xdpi="78.739998"
   inkscape:export-ydpi="78.739998"
   sodipodi:docname="bg2.svg"
   inkscape:output_extension="org.inkscape.output.svg.inkscape">
  <sodipodi:namedview
     id="base"
     pagecolor="#ffffff"
     bordercolor="#666666"
     borderopacity="1.0"
     gridtolerance="10000"
     guidetolerance="10"
     objecttolerance="10"
     inkscape:pageopacity="0.0"
     inkscape:pageshadow="2"
     inkscape:zoom="0.72627136"
     inkscape:cx="440.49186"
     inkscape:cy="218.13355"
     inkscape:document-units="cm"
     inkscape:current-layer="layer1"
     showgrid="false"
     units="cm"
     borderlayer="true"
     inkscape:showpageshadow="false"
     inkscape:window-width="1149"
     inkscape:window-height="642"
     inkscape:window-x="-32000"
     inkscape:window-y="-32000"
     inkscape:window-maximized="0">
    <inkscape:grid
       spacingy="1cm"
       spacingx="1cm"
       units="cm"
       enabled="true"
       visible="true"
       id="grid3225"
       type="xygrid"
       empspacing="5"
       snapvisiblegridlinesonly="true" />
  </sodipodi:namedview>
  <defs
     id="defs3217">
    <linearGradient
       inkscape:collect="always"
       id="linearGradient3049">
      <stop
         style="stop-color:#ff0000;stop-opacity:1;"
         offset="0"
         id="stop3051" />
      <stop
         style="stop-color:#ff0000;stop-opacity:0;"
         offset="1"
         id="stop3053" />
    </linearGradient>
    <linearGradient
       id="linearGradient3341">
      <stop
         id="stop3343"
         offset="0"
         style="stop-color:#141809;stop-opacity:0.38829789" />
      <stop
         id="stop3345"
         offset="1"
         style="stop-color:#315304;stop-opacity:0.72872341" />
    </linearGradient>
    <linearGradient
       id="linearGradient3325">
      <stop
         style="stop-color:#1dff98;stop-opacity:0.82882881;"
         offset="0"
         id="stop3327" />
      <stop
         id="stop3331"
         offset="0.27083334"
         style="stop-color:#dfffff;stop-opacity:0.56756759;" />
      <stop
         style="stop-color:#c8d4ff;stop-opacity:0.9009009;"
         offset="0.51215237"
         id="stop3333" />
      <stop
         id="stop3337"
         offset="0.80916375"
         style="stop-color:#279cff;stop-opacity:0.65490198;" />
      <stop
         style="stop-color:#9affab;stop-opacity:0.40784314;"
         offset="1"
         id="stop3329" />
    </linearGradient>
    <linearGradient
       id="linearGradient3303">
      <stop
         id="stop3305"
         offset="0"
         style="stop-color:#24de00;stop-opacity:1;" />
      <stop
         style="stop-color:#7ec800;stop-opacity:1;"
         offset="0.5"
         id="stop3311" />
      <stop
         id="stop3307"
         offset="1"
         style="stop-color:#00a948;stop-opacity:1;" />
    </linearGradient>
    <linearGradient
       id="linearGradient6075">
      <stop
         style="stop-color:#b7ff0b;stop-opacity:1;"
         offset="0"
         id="stop6077" />
      <stop
         style="stop-color:#ffdf10;stop-opacity:0;"
         offset="1"
         id="stop6079" />
    </linearGradient>
    <linearGradient
       id="linearGradient3860">
      <stop
         id="stop3862"
         offset="0"
         style="stop-color:#ffffff;stop-opacity:1" />
      <stop
         id="stop3864"
         offset="1"
         style="stop-color:#ffffff;stop-opacity:0.40740741" />
    </linearGradient>
    <linearGradient
       id="linearGradient3838">
      <stop
         id="stop3840"
         offset="0"
         style="stop-color:#5300a9;stop-opacity:1;" />
      <stop
         id="stop3842"
         offset="1"
         style="stop-color:#874d9a;stop-opacity:0.35652173;" />
    </linearGradient>
    <linearGradient
       id="linearGradient3764">
      <stop
         id="stop3766"
         offset="0"
         style="stop-color:#000000;stop-opacity:0.48404256" />
      <stop
         style="stop-color:#000000;stop-opacity:0.34042552"
         offset="0.54437381"
         id="stop3323" />
      <stop
         id="stop3768"
         offset="1"
         style="stop-color:#000000;stop-opacity:0.52127659" />
    </linearGradient>
    <inkscape:perspective
       id="perspective3223"
       inkscape:persp3d-origin="518.81373 : 174.86949 : 1"
       inkscape:vp_z="1210.4345 : 371.79896 : 1"
       inkscape:vp_y="6.1230315e-014 : 999.99996 : 0"
       inkscape:vp_x="-133.95456 : 475.3823 : 1"
       sodipodi:type="inkscape:persp3d" />
    <linearGradient
       gradientTransform="matrix(0.9981249,0,0,1.4448578,2.9081211,-105.07943)"
       gradientUnits="userSpaceOnUse"
       y2="104.53196"
       x2="70.866142"
       y1="460.62991"
       x1="70.866142"
       id="linearGradient3774"
       xlink:href="#linearGradient3764"
       inkscape:collect="always" />
    <linearGradient
       y2="70.595726"
       x2="496.06299"
       y1="602.36218"
       x1="496.06299"
       gradientTransform="matrix(1.0001367,0,0,0.1664797,-0.106564,59.147886)"
       gradientUnits="userSpaceOnUse"
       id="linearGradient6073"
       xlink:href="#linearGradient6075"
       inkscape:collect="always" />
    <clipPath
       id="clipPath6715"
       clipPathUnits="userSpaceOnUse">
      <g
         transform="matrix(0.992028,-0.150081,0.1279782,0.9889256,0,0)"
         id="g6717">
        <path
           inkscape:transform-center-y="115.12074"
           inkscape:transform-center-x="-282.67357"
           id="path6719"
           d="m 14.455919,1060.2638 c 0,0 2.21071,4.4168 2.21071,4.4168 0,0 2.31592,4.3661 2.31592,4.3661 0,0 2.38005,4.3281 2.38005,4.3281 0,0 2.42866,4.2625 2.42866,4.2625 0,0 2.51373,4.2434 2.51373,4.2434 0,0 2.55156,4.1901 2.55156,4.1901 0,0 2.59557,4.1747 2.59557,4.1747 0,0 2.6656,4.1218 2.6656,4.1218 0,0 2.72532,4.0793 2.72532,4.0793 0,0 2.79201,4.0307 2.79201,4.0307 0,0 2.84125,3.9881 2.84125,3.9881 0,0 2.88619,3.9462 2.88619,3.9462 0,0 2.9734,3.9022 2.9734,3.9022 0,0 3.01949,3.8332 3.01949,3.8332 0,0 3.06024,3.787 3.06024,3.787 0,0 3.16527,3.7481 3.16527,3.7481 0,0 3.20042,3.652 3.20042,3.652 0,0 3.23636,3.6004 3.23636,3.6004 0,0 3.38082,3.5548 3.38082,3.5548 0,0 3.38358,3.4372 3.38358,3.4372 0,0 3.49781,3.4397 3.49781,3.4397 0,0 3.53711,3.2495 3.53711,3.2495 0,0 3.58212,3.2136 3.58212,3.2136 0,0 3.69756,3.1171 3.69756,3.1171 0,0 3.77053,3.0173 3.77053,3.0173 0,0 3.77724,2.8462 3.77724,2.8462 0,0 3.92427,2.7726 3.92427,2.7726 0,0 3.998561,2.6476 3.998561,2.6476 0,0 4.0726,2.5139 4.0726,2.5139 0,0 4.02812,2.2933 4.02812,2.2933 0,0 4.21886,2.19 4.21886,2.19 0,0 4.28708,2.0252 4.28708,2.0252 0,0 4.35198,1.8503 4.35198,1.8503 0,0 4.22643,1.5853 4.22643,1.5853 0,0 4.46334,1.4384 4.46334,1.4384 0,0 4.51011,1.2323 4.51011,1.2323 0,0 4.54926,1.0177 4.54926,1.0177 0,0 4.57978,0.7957 4.57978,0.7957 0,0 4.32415,0.4876 4.32415,0.4876 0,0 4.5982,0.3064 4.5982,0.3064 0,0 4.61604,0.08 4.61604,0.08 0,0 4.90574,0.01 4.90574,0.01 0,0 4.68087,-0.1141 4.68087,-0.1141 0,0 4.9039,-0.139 4.9039,-0.139 0,0 4.73339,-0.2278 4.73339,-0.2278 0,0 4.89995,-0.242 4.89995,-0.242 0,0 4.77444,-0.2948 4.77444,-0.2948 0,0 4.89595,-0.3132 4.89595,-0.3132 0,0 4.78368,-0.3417 4.78368,-0.3417 0,0 4.89173,-0.3736 4.89173,-0.3736 0,0 4.89171,-0.3735 4.89171,-0.3735 0,0 4.89172,-0.3736 4.89172,-0.3736 0,0 4.89173,-0.3735 4.89173,-0.3735 0,0 4.84693,-0.3856 4.84693,-0.3856 0,0 4.89008,-0.3949 4.89008,-0.3949 0,0 4.89007,-0.3949 4.89007,-0.3949 0,0 4.89006,-0.3949 4.89006,-0.3949 0,0 4.89007,-0.3949 4.89007,-0.3949 0,0 4.96685,-0.3879 4.96685,-0.3879 0,0 4.8926,-0.3617 4.8926,-0.3617 0,0 4.89261,-0.3617 4.89261,-0.3617 0,0 4.89261,-0.3617 4.89261,-0.3617 0,0 4.8926,-0.3617 4.8926,-0.3617 0,0 4.89262,-0.3617 4.89262,-0.3617 0,0 5.03251,-0.3335 5.03251,-0.3335 0,0 4.89631,-0.3077 4.89631,-0.3077 0,0 4.89631,-0.3077 4.89631,-0.3077 0,0 5.035,-0.2772 5.035,-0.2772 0,0 4.89923,-0.2568 4.89923,-0.2568 0,0 4.89925,-0.2567 4.89925,-0.2567 0,0 5.07621,-0.218 5.07621,-0.218 0,0 4.90208,-0.1946 4.90208,-0.1946 0,0 4.9021,-0.1945 4.9021,-0.1945 0,0 5.12103,-0.149 5.12103,-0.149 0,0 4.90443,-0.121 4.90443,-0.121 0,0 4.90445,-0.121 4.90445,-0.121 0,0 5.16992,-0.07 5.16992,-0.07 0,0 4.90578,-0.035 4.90578,-0.035 0,0 4.9058,-0.035 4.9058,-0.035 0,0 5.22339,0.021 5.22339,0.021 0,0 4.9055,0.063 4.9055,0.063 0,0 4.90549,0.063 4.90549,0.063 0,0 5.28193,0.1255 5.28193,0.1255 0,0 4.90276,0.1749 4.90276,0.1749 0,0 4.90275,0.1748 4.90275,0.1748 0,0 5.34588,0.2466 5.34588,0.2466 0,0 4.89655,0.3016 4.89655,0.3016 0,0 4.89656,0.3017 4.89656,0.3017 0,0 5.27835,0.3632 5.27835,0.3632 0,0 4.88905,0.4068 4.88905,0.4068 0,0 5.16563,0.493 5.16563,0.493 0,0 5.18416,0.5377 5.18416,0.5377 0,0 4.87355,0.5628 4.87355,0.5628 0,0 5.19358,0.6689 5.19358,0.6689 0,0 5.21285,0.7222 5.21285,0.7222 0,0 4.85014,0.7377 4.85014,0.7377 0,0 5.21815,0.8728 5.21815,0.8728 0,0 5.23738,0.9366 5.23738,0.9366 0,0 4.81634,0.9331 4.81634,0.9331 0,0 5.23611,1.1098 5.23611,1.1098 0,0 5.25398,1.1866 5.25398,1.1866 0,0 4.76905,1.1506 4.76905,1.1506 0,0 5.2427,1.3854 5.2427,1.3854 0,0 5.25705,1.478 5.25705,1.478 0,0 4.70437,1.3915 4.70437,1.3915 0,0 5.23099,1.7057 5.23099,1.7057 0,0 5.2386,1.8164 5.2386,1.8164 0,0 5.24468,1.9341 5.24468,1.9341 0,0 4.56434,1.7982 4.56434,1.7982 0,0 5.18769,2.2066 5.18769,2.2066 0,0 5.18045,2.3453 5.18045,2.3453 0,0 4.43404,2.0989 4.43404,2.0989 0,0 5.09023,2.6503 5.09023,2.6503 0,0 5.06313,2.8099 5.06313,2.8099 0,0 5.02871,2.977 5.02871,2.977 0,0 4.1678,2.5875 4.1678,2.5875 0,0 4.87522,3.3215 4.87522,3.3215 0,0 4.62293,3.3104 4.62293,3.3104 0,0 4.72347,3.6883 4.72347,3.6883 0,0 4.21167,3.4883 4.21167,3.4883 0,0 4.51123,4.0602 4.51123,4.0602 0,0 3.9806,3.8032 3.9806,3.8032 0,0 4.25088,4.4292 4.25088,4.4292 0,0 4.11125,4.6133 4.11125,4.6133 0,0 3.54365,4.2796 3.54365,4.2796 0,0 3.78036,4.9527 3.78036,4.9527 0,0 3.22048,4.5548 3.22048,4.5548 0,0 3.07188,4.6635 3.07188,4.6635 0,0 -0.35911,0.2122 -0.35911,0.2122 0,0 -0.3591,0.2121 -0.3591,0.2121 0,0 -0.35911,0.2122 -0.35911,0.2122 0,0 -0.35911,0.2121 -0.35911,0.2121 0,0 -0.3591,0.2122 -0.3591,0.2122 0,0 -0.3591,0.2121 -0.3591,0.2121 0,0 -0.35912,0.2122 -0.35912,0.2122 0,0 -0.3591,0.2122 -0.3591,0.2122 0,0 -0.3591,0.2121 -0.3591,0.2121 0,0 -0.35911,0.2122 -0.35911,0.2122 0,0 -0.35911,0.2121 -0.35911,0.2121 0,0 -0.3591,0.2122 -0.3591,0.2122 0,0 -0.35911,0.2121 -0.35911,0.2121 0,0 -0.3591,0.2122 -0.3591,0.2122 0,0 -0.35912,0.2121 -0.35912,0.2121 0,0 -0.3591,0.2122 -0.3591,0.2122 0,0 -0.3591,0.2121 -0.3591,0.2121 0,0 -0.35911,0.2122 -0.35911,0.2122 0,0 -0.35911,0.2121 -0.35911,0.2121 0,0 -0.3591,0.2122 -0.3591,0.2122 0,0 -0.35911,0.2121 -0.35911,0.2121 0,0 -0.3591,0.2122 -0.3591,0.2122 0,0 -0.35911,0.2121 -0.35911,0.2121 0,0 -0.35911,0.2122 -0.35911,0.2122 0,0 -0.3591,0.2121 -0.3591,0.2121 0,0 -0.3591,0.2122 -0.3591,0.2122 0,0 -0.35912,0.2122 -0.35912,0.2122 0,0 -0.3591,0.2121 -0.3591,0.2121 0,0 -0.35911,0.2122 -0.35911,0.2122 0,0 -0.3591,0.2121 -0.3591,0.2121 0,0 -0.35911,0.2122 -0.35911,0.2122 0,0 -0.35911,0.2121 -0.35911,0.2121 0,0 -0.3591,0.2122 -0.3591,0.2122 0,0 -0.3591,0.2121 -0.3591,0.2121 0,0 -0.35912,0.2122 -0.35912,0.2122 0,0 -0.3591,0.2121 -0.3591,0.2121 0,0 -0.3591,0.2122 -0.3591,0.2122 0,0 -0.35911,0.2121 -0.35911,0.2121 0,0 -0.35911,0.2122 -0.35911,0.2122 0,0 -0.3591,0.2121 -0.3591,0.2121 0,0 -0.35911,0.2122 -0.35911,0.2122 0,0 -0.3591,0.2121 -0.3591,0.2121 0,0 -0.35911,0.2122 -0.35911,0.2122 0,0 -0.35911,0.2121 -0.35911,0.2121 0,0 -0.3591,0.2122 -0.3591,0.2122 0,0 -0.35911,0.2122 -0.35911,0.2122 0,0 -0.3591,0.2121 -0.3591,0.2121 0,0 -0.35911,0.2122 -0.35911,0.2122 0,0 -0.35911,0.2121 -0.35911,0.2121 0,0 -0.3591,0.2122 -0.3591,0.2122 0,0 -0.35911,0.2121 -0.35911,0.2121 0,0 -0.35911,0.2122 -0.35911,0.2122 0,0 -0.3591,0.2121 -0.3591,0.2121 0,0 -0.3591,0.2122 -0.3591,0.2122 0,0 -0.35911,0.2121 -0.35911,0.2121 0,0 -0.35911,0.2122 -0.35911,0.2122 0,0 -0.35911,0.2121 -0.35911,0.2121 0,0 -0.3591,0.2122 -0.3591,0.2122 0,0 -0.3591,0.2121 -0.3591,0.2121 0,0 -0.35912,0.2122 -0.35912,0.2122 0,0 -0.3591,0.2121 -0.3591,0.2121 0,0 -0.3591,0.2122 -0.3591,0.2122 0,0 -0.35911,0.2122 -0.35911,0.2122 0,0 -0.35911,0.2121 -0.35911,0.2121 0,0 -0.3591,0.2122 -0.3591,0.2122 0,0 -0.35911,0.2121 -0.35911,0.2121 0,0 -0.3591,0.2122 -0.3591,0.2122 0,0 -0.35911,0.2121 -0.35911,0.2121 0,0 -0.35911,0.2122 -0.35911,0.2122 0,0 -0.3591,0.2121 -0.3591,0.2121 0,0 -0.35911,0.2122 -0.35911,0.2122 0,0 -0.35911,0.2121 -0.35911,0.2121 0,0 -0.3591,0.2122 -0.3591,0.2122 0,0 -0.35911,0.2121 -0.35911,0.2121 0,0 -0.3591,0.2122 -0.3591,0.2122 0,0 -0.35911,0.2121 -0.35911,0.2121 0,0 -0.35911,0.2122 -0.35911,0.2122 0,0 -0.3591,0.2121 -0.3591,0.2121 0,0 -0.3591,0.2122 -0.3591,0.2122 0,0 -0.35912,0.2121 -0.35912,0.2121 0,0 -0.3591,0.2122 -0.3591,0.2122 0,0 -0.3591,0.2121 -0.3591,0.2121 0,0 -0.35911,0.2122 -0.35911,0.2122 0,0 -0.35911,0.2122 -0.35911,0.2122 0,0 -0.35911,0.2121 -0.35911,0.2121 0,0 -0.3591,0.2122 -0.3591,0.2122 0,0 -0.3591,0.2121 -0.3591,0.2121 0,0 -0.35911,0.2122 -0.35911,0.2122 0,0 -0.35911,0.2121 -0.35911,0.2121 0,0 -0.3591,0.2122 -0.3591,0.2122 0,0 -0.35911,0.2121 -0.35911,0.2121 0,0 -0.3591,0.2122 -0.3591,0.2122 0,0 -0.35911,0.2121 -0.35911,0.2121 0,0 -0.35911,0.2122 -0.35911,0.2122 0,0 -0.3591,0.2121 -0.3591,0.2121 0,0 -0.35911,0.2122 -0.35911,0.2122 0,0 -0.35911,0.2121 -0.35911,0.2121 0,0 -0.3591,0.2122 -0.3591,0.2122 0,0 -0.35911,0.2121 -0.35911,0.2121 0,0 -0.3591,0.2122 -0.3591,0.2122 0,0 -0.35911,0.2121 -0.35911,0.2121 0,0 -0.35911,0.2122 -0.35911,0.2122 0,0 -0.3591,0.2122 -0.3591,0.2122 0,0 -0.3591,0.2121 -0.3591,0.2121 0,0 -0.35912,0.2122 -0.35912,0.2122 0,0 -0.3591,0.2121 -0.3591,0.2121 0,0 -0.3591,0.2122 -0.3591,0.2122 0,0 -0.35911,0.2121 -0.35911,0.2121 0,0 -0.35911,0.2122 -0.35911,0.2122 0,0 -0.3591,0.2121 -0.3591,0.2121 0,0 -0.35911,0.2122 -0.35911,0.2122 0,0 -0.3591,0.2121 -0.3591,0.2121 0,0 -0.35912,0.2122 -0.35912,0.2122 0,0 -0.3591,0.2121 -0.3591,0.2121 0,0 -0.3591,0.2122 -0.3591,0.2122 0,0 -0.35911,0.2121 -0.35911,0.2121 0,0 -0.35911,0.2122 -0.35911,0.2122 0,0 -0.3591,0.2121 -0.3591,0.2121 0,0 -0.35911,0.2122 -0.35911,0.2122 0,0 -0.3591,0.2121 -0.3591,0.2121 0,0 -0.35911,0.2122 -0.35911,0.2122 0,0 -0.35911,0.2122 -0.35911,0.2122 0,0 -0.3591,0.2121 -0.3591,0.2121 0,0 -0.3591,0.2122 -0.3591,0.2122 0,0 -0.35912,0.2121 -0.35912,0.2121 0,0 -0.3591,0.2122 -0.3591,0.2122 0,0 -0.35911,0.2121 -0.35911,0.2121 0,0 -0.3591,0.2122 -0.3591,0.2122 0,0 -2.00833,-3.7174 -2.00833,-3.7174 0,0 -2.14089,-3.6483 -2.14089,-3.6483 0,0 -1.91833,-3.0167 -1.91833,-3.0167 0,0 -2.42419,-3.4917 -2.42419,-3.4917 0,0 -2.1722,-2.9001 -2.1722,-2.9001 0,0 -2.27966,-2.868 -2.27966,-2.868 0,0 -2.84079,-3.2278 -2.84079,-3.2278 0,0 -2.53296,-2.7389 -2.53296,-2.7389 0,0 -3.08868,-3.0425 -3.08868,-3.0425 0,0 -2.77596,-2.6021 -2.77596,-2.6021 0,0 -3.12124,-2.679 -3.12124,-2.679 0,0 -2.99851,-2.4893 -2.99851,-2.4893 0,0 -3.9319,-2.9314 -3.9319,-2.9314 0,0 -3.21903,-2.2865 -3.21903,-2.2865 0,0 -3.3146,-2.2421 -3.3146,-2.2421 0,0 -3.40905,-2.1958 -3.40905,-2.1958 0,0 -4.23861,-2.4674 -4.23861,-2.4674 0,0 -3.58372,-2.0007 -3.58372,-2.0007 0,0 -3.66498,-1.9552 -3.66498,-1.9552 0,0 -4.39393,-2.1789 -4.39393,-2.1789 0,0 -3.80919,-1.7715 -3.80919,-1.7715 0,0 -3.87827,-1.7284 -3.87827,-1.7284 0,0 -3.94513,-1.6841 -3.94513,-1.6841 0,0 -4.56799,-1.7857 -4.56799,-1.7857 0,0 -4.05462,-1.5186 -4.05462,-1.5186 0,0 -4.11095,-1.4777 -4.11095,-1.4777 0,0 -4.65287,-1.5511 -4.65287,-1.5511 0,0 -4.19994,-1.327 -4.19994,-1.327 0,0 -4.24737,-1.2896 -4.24737,-1.2896 0,0 -4.71845,-1.3385 -4.71845,-1.3385 0,0 -4.31963,-1.153 -4.31963,-1.153 0,0 -4.35967,-1.1192 -4.35967,-1.1192 0,0 -4.76871,-1.1468 -4.76871,-1.1468 0,0 -4.4184,-0.996 -4.4184,-0.996 0,0 -4.45233,-0.9653 -4.45233,-0.9653 0,0 -4.80687,-0.9746 -4.80687,-0.9746 0,0 -4.50017,-0.8546 -4.50017,-0.8546 0,0 -4.52906,-0.8266 -4.52906,-0.8266 0,0 -4.83557,-0.8204 -4.83557,-0.8204 0,0 -4.44148,-0.685 -4.44148,-0.685 0,0 -4.85198,-0.7164 -4.85198,-0.7164 0,0 -4.85198,-0.7163 -4.85198,-0.7163 0,0 -4.38796,-0.5748 -4.38796,-0.5748 0,0 -4.86892,-0.5906 -4.86892,-0.5906 0,0 -4.86892,-0.5905 -4.86892,-0.5905 0,0 -4.4691,-0.4867 -4.4691,-0.4867 0,0 -4.88116,-0.4792 -4.88116,-0.4792 0,0 -4.88117,-0.4793 -4.88117,-0.4793 0,0 -4.53957,-0.4055 -4.53957,-0.4055 0,0 -4.88981,-0.3813 -4.88981,-0.3813 0,0 -4.88979,-0.3814 -4.88979,-0.3814 0,0 -4.60118,-0.3306 -4.60118,-0.3306 0,0 -4.89573,-0.296 -4.89573,-0.296 0,0 -4.89572,-0.296 -4.89572,-0.296 0,0 -4.6554,-0.2619 -4.6554,-0.2619 0,0 -4.89964,-0.2225 -4.89964,-0.2225 0,0 -4.89963,-0.2225 -4.89963,-0.2225 0,0 -4.7036,-0.1992 -4.7036,-0.1992 0,0 -4.90208,-0.1603 -4.90208,-0.1603 0,0 -4.90206,-0.1604 -4.90206,-0.1604 0,0 -4.74696,-0.1433 -4.74696,-0.1433 0,0 -4.90349,-0.1093 -4.90349,-0.1093 0,0 -4.90348,-0.1093 -4.90348,-0.1093 0,0 -4.74523,-0.09 -4.74523,-0.09 0,0 -4.90438,-0.055 -4.90438,-0.055 0,0 -4.90438,-0.055 -4.90438,-0.055 0,0 -4.90438,-0.055 -4.90438,-0.055 0,0 -4.90439,-0.055 -4.90439,-0.055 0,0 -4.90437,-0.055 -4.90437,-0.055 0,0 -4.81454,-0.034 -4.81454,-0.034 0,0 -4.90467,-0.022 -4.90467,-0.022 0,0 -4.90466,-0.022 -4.90466,-0.022 0,0 -4.90468,-0.022 -4.90468,-0.022 0,0 -4.90468,-0.022 -4.90468,-0.022 0,0 -4.95804,-0.028 -4.95804,-0.028 0,0 -4.90451,-0.043 -4.90451,-0.043 0,0 -4.9045,-0.043 -4.9045,-0.043 0,0 -4.9045,-0.043 -4.9045,-0.043 0,0 -4.90451,-0.043 -4.90451,-0.043 0,0 -5.04337,-0.069 -5.04337,-0.069 0,0 -4.90358,-0.1038 -4.90358,-0.1038 0,0 -5.06099,-0.1193 -5.06099,-0.1193 0,0 -4.90152,-0.1751 -4.90152,-0.1751 0,0 -5.12045,-0.1921 -5.12045,-0.1921 0,0 -4.89672,-0.2781 -4.89672,-0.2781 0,0 -5.19363,-0.32 -5.19363,-0.32 0,0 -4.88617,-0.4233 -4.88617,-0.4233 0,0 -5.26902,-0.5421 -5.26902,-0.5421 0,0 -5.25147,-0.7971 -5.25147,-0.7971 0,0 -5.56653,-1.1256 -5.56653,-1.1256 0,0 -5.09445,-1.3464 -5.09445,-1.3464 0,0 -5.01032,-1.5797 -5.01032,-1.5797 0,0 -4.91794,-1.8015 -4.91794,-1.8015 0,0 -4.81882,-2.0112 -4.81882,-2.0112 0,0 -4.96293,-2.3514 -4.96293,-2.3514 0,0 -4.57268,-2.4218 -4.57268,-2.4218 0,0 -4.4623,-2.5894 -4.4623,-2.5894 0,0 -4.35105,-2.7451 -4.35105,-2.7451 0,0 -4.405591,-3.0232 -4.405591,-3.0232 0,0 -4.10009,-3.0394 -4.10009,-3.0394 0,0 -3.9925,-3.1593 -3.9925,-3.1593 0,0 -3.88706,-3.2701 -3.88706,-3.2701 0,0 -3.89165,-3.4819 -3.89165,-3.4819 0,0 -3.65997,-3.4765 -3.65997,-3.4765 0,0 -3.56388,-3.5616 -3.56388,-3.5616 0,0 -3.48879,-3.7051 -3.48879,-3.7051 0,0 -3.46353,-3.7742 -3.46353,-3.7742 0,0 -3.19212,-3.7235 -3.19212,-3.7235 0,0 -3.25502,-3.9181 -3.25502,-3.9181 0,0 -3.0658,-3.8282 -3.0658,-3.8282 0,0 -3.06169,-4.0405 -3.06169,-4.0405 0,0 -2.99438,-4.0635 -2.99438,-4.0635 0,0 -2.8347,-4.0024 -2.8347,-4.0024 0,0 -2.82092,-4.1632 -2.82092,-4.1632 0,0 -2.75803,-4.1853 -2.75803,-4.1853 0,0 -2.63047,-4.1396 -2.63047,-4.1396 0,0 -2.60055,-4.2684 -2.60055,-4.2684 0,0 -2.53984,-4.2902 -2.53984,-4.2902 0,0 -2.47707,-4.3145 -2.47707,-4.3145 0,0 -2.36831,-4.295 -2.36831,-4.295 0,0 -2.33516,-4.3823 -2.33516,-4.3823 0,0 -2.26437,-4.4367 -2.26437,-4.4367 0,0 -2.18582,-4.3905 -2.18582,-4.3905 0,0 -2.1707,-4.4867 -2.1707,-4.4867 0,0 -2.05724,-4.4523 -2.05724,-4.4523 0,0 -2.01807,-4.5369 -2.01807,-4.5369 0,0 -1.94372,-4.5548 -1.94372,-4.5548 0,0 -1.83062,-4.5886 -1.83062,-4.5886 0,0 0,0 0,0"
           style="fill:#000000;fill-rule:evenodd;stroke:#000000;stroke-width:1px;stroke-linecap:butt;stroke-linejoin:miter;stroke-opacity:1"
           inkscape:connector-curvature="0" />
        <path
           inkscape:transform-center-y="115.12074"
           inkscape:transform-center-x="-282.67357"
           id="path6721"
           d="m 14.528429,1060.1788 c 0,0 2.87877,4.0135 2.87877,4.0135 0,0 2.97468,3.9468 2.97468,3.9468 0,0 3.03203,3.8993 3.03203,3.8993 0,0 3.0697,3.8268 3.0697,3.8268 0,0 3.15069,3.7945 3.15069,3.7945 0,0 3.17965,3.7358 3.17965,3.7358 0,0 3.22071,3.7139 3.22071,3.7139 0,0 3.28151,3.6505 3.28151,3.6505 0,0 3.3338,3.5991 3.3338,3.5991 0,0 3.39201,3.5407 3.39201,3.5407 0,0 3.43391,3.4908 3.43391,3.4908 0,0 3.47171,3.4424 3.47171,3.4424 0,0 3.55088,3.3851 3.55088,3.3851 0,0 3.58555,3.3099 3.58555,3.3099 0,0 3.6185,3.2577 3.6185,3.2577 0,0 3.71609,3.2028 3.71609,3.2028 0,0 3.73567,3.1023 3.73567,3.1023 0,0 3.76304,3.0458 3.76304,3.0458 0,0 3.8985,2.9779 3.8985,2.9779 0,0 3.88271,2.8614 3.88271,2.8614 0,0 3.99591,2.8458 3.99591,2.8458 0,0 4.00477,2.6519 4.00477,2.6519 0,0 4.04355,2.6092 4.04355,2.6092 0,0 4.14236,2.4959 4.14236,2.4959 0,0 4.198691,2.3857 4.198691,2.3857 0,0 4.17838,2.2158 4.17838,2.2158 0,0 4.31198,2.1199 4.31198,2.1199 0,0 4.36565,1.9848 4.36565,1.9848 0,0 4.41771,1.8411 4.41771,1.8411 0,0 4.33905,1.6302 4.33905,1.6302 0,0 4.51113,1.4983 4.51113,1.4983 0,0 4.55255,1.3247 4.55255,1.3247 0,0 4.58908,1.1417 4.58908,1.1417 0,0 4.42337,0.8999 4.42337,0.8999 0,0 4.63417,0.7174 4.63417,0.7174 0,0 4.64791,0.5066 4.64791,0.5066 0,0 4.65278,0.2885 4.65278,0.2885 0,0 4.64794,0.064 4.64794,0.064 0,0 4.34698,-0.1995 4.34698,-0.1995 0,0 4.58906,-0.4217 4.58906,-0.4217 0,0 4.57101,-0.6481 4.57101,-0.6481 0,0 4.84556,-0.7661 4.84556,-0.7661 0,0 4.60447,-0.8499 4.60447,-0.8499 0,0 4.8208,-0.9097 4.8208,-0.9097 0,0 4.63843,-0.9705 4.63843,-0.9705 0,0 4.80068,-1.0107 4.80068,-1.0107 0,0 4.66842,-1.0431 4.66842,-1.0431 0,0 4.78552,-1.0804 4.78552,-1.0804 0,0 4.67014,-1.0909 4.67014,-1.0909 0,0 4.77184,-1.1394 4.77184,-1.1394 0,0 4.77182,-1.1393 4.77182,-1.1393 0,0 4.77184,-1.1393 4.77184,-1.1393 0,0 4.77184,-1.1394 4.77184,-1.1394 0,0 4.7257,-1.1441 4.7257,-1.1441 0,0 4.76684,-1.1602 4.76684,-1.1602 0,0 4.76684,-1.1602 4.76684,-1.1602 0,0 4.76683,-1.1602 4.76683,-1.1602 0,0 4.76684,-1.1601 4.76684,-1.1601 0,0 4.84377,-1.1653 4.84377,-1.1653 0,0 4.77457,-1.1278 4.77457,-1.1278 0,0 4.77457,-1.1278 4.77457,-1.1278 0,0 4.77457,-1.1278 4.77457,-1.1278 0,0 4.77457,-1.1278 4.77457,-1.1278 0,0 4.77458,-1.1277 4.77458,-1.1277 0,0 4.91718,-1.122 4.91718,-1.122 0,0 4.78674,-1.075 4.78674,-1.075 0,0 4.78673,-1.075 4.78673,-1.075 0,0 4.92849,-1.0668 4.92849,-1.0668 0,0 4.79765,-1.0252 4.79765,-1.0252 0,0 4.79767,-1.0251 4.79767,-1.0251 0,0 4.97852,-1.0148 4.97852,-1.0148 0,0 4.81024,-0.9643 4.81024,-0.9643 0,0 4.81027,-0.9642 4.81027,-0.9642 0,0 5.03365,-0.9537 5.03365,-0.9537 0,0 4.82416,-0.8919 4.82416,-0.8919 0,0 4.82418,-0.892 4.82418,-0.892 0,0 5.09442,-0.8831 5.09442,-0.8831 0,0 4.83897,-0.8076 4.83897,-0.8076 0,0 4.83899,-0.8077 4.83899,-0.8077 0,0 5.16152,-0.8018 5.16152,-0.8018 0,0 4.85418,-0.7105 4.85418,-0.7105 0,0 4.85417,-0.7105 4.85417,-0.7105 0,0 5.23578,-0.708 5.23578,-0.708 0,0 4.86911,-0.5995 4.86911,-0.5995 0,0 4.86909,-0.5995 4.86909,-0.5995 0,0 5.318,-0.5985 5.318,-0.5985 0,0 4.88294,-0.4733 4.88294,-0.4733 0,0 4.88296,-0.4733 4.88296,-0.4733 0,0 5.26967,-0.4727 5.26967,-0.4727 0,0 4.8921,-0.3683 4.8921,-0.3683 0,0 5.17881,-0.3268 5.17881,-0.3268 0,0 5.20413,-0.2855 5.20413,-0.2855 0,0 4.90137,-0.2118 4.90137,-0.2118 0,0 5.23412,-0.1574 5.23412,-0.1574 0,0 5.26152,-0.1079 5.26152,-0.1079 0,0 4.9058,-0.035 4.9058,-0.035 0,0 5.29049,0.04 5.29049,0.04 0,0 5.31953,0.1001 5.31953,0.1001 0,0 4.90319,0.1628 4.90319,0.1628 0,0 5.34555,0.2713 5.34555,0.2713 0,0 5.37529,0.3443 5.37529,0.3443 0,0 4.89075,0.385 4.89075,0.385 0,0 5.39548,0.5425 5.39548,0.5425 0,0 5.42421,0.6315 5.42421,0.6315 0,0 4.86481,0.6331 4.86481,0.6331 0,0 5.43436,0.8606 5.43436,0.8606 0,0 5.45931,0.9687 5.45931,0.9687 0,0 5.48383,1.0838 5.48383,1.0838 0,0 4.79059,1.0569 4.79059,1.0569 0,0 5.47049,1.362 5.47049,1.362 0,0 5.48517,1.5001 5.48517,1.5001 0,0 4.70928,1.3744 4.70928,1.3744 0,0 5.44413,1.8155 5.44413,1.8155 0,0 5.44249,1.9773 5.44249,1.9773 0,0 5.43483,2.1478 5.43483,2.1478 0,0 4.52331,1.8988 4.52331,1.8988 0,0 5.33753,2.5123 5.33753,2.5123 0,0 5.08662,2.5409 5.08662,2.5409 0,0 5.24541,2.8982 5.24541,2.8982 0,0 4.70852,2.7815 4.70852,2.7815 0,0 5.09442,3.299 5.09442,3.299 0,0 4.52993,3.1288 4.52993,3.1288 0,0 4.89543,3.7044 4.89543,3.7044 0,0 4.78653,3.9082 4.78653,3.9082 0,0 4.17346,3.668 4.17346,3.668 0,0 4.51323,4.2955 4.51323,4.2955 0,0 3.89768,3.9908 3.89768,3.9908 0,0 3.76805,4.1214 3.76805,4.1214 0,0 -0.32121,0.2661 -0.32121,0.2661 0,0 -0.32121,0.2661 -0.32121,0.2661 0,0 -0.32121,0.266 -0.32121,0.266 0,0 -0.32121,0.2661 -0.32121,0.2661 0,0 -0.32121,0.2661 -0.32121,0.2661 0,0 -0.3212,0.266 -0.3212,0.266 0,0 -0.32122,0.2661 -0.32122,0.2661 0,0 -0.32121,0.266 -0.32121,0.266 0,0 -0.3212,0.2661 -0.3212,0.2661 0,0 -0.32121,0.2661 -0.32121,0.2661 0,0 -0.32122,0.266 -0.32122,0.266 0,0 -0.3212,0.2661 -0.3212,0.2661 0,0 -0.32122,0.2661 -0.32122,0.2661 0,0 -0.3212,0.266 -0.3212,0.266 0,0 -0.32122,0.2661 -0.32122,0.2661 0,0 -0.32121,0.2661 -0.32121,0.2661 0,0 -0.3212,0.266 -0.3212,0.266 0,0 -0.32121,0.2661 -0.32121,0.2661 0,0 -0.32122,0.2661 -0.32122,0.2661 0,0 -0.3212,0.266 -0.3212,0.266 0,0 -0.32122,0.2661 -0.32122,0.2661 0,0 -0.3212,0.2661 -0.3212,0.2661 0,0 -0.32121,0.266 -0.32121,0.266 0,0 -0.32122,0.2661 -0.32122,0.2661 0,0 -0.3212,0.266 -0.3212,0.266 0,0 -0.3212,0.2661 -0.3212,0.2661 0,0 -0.32123,0.2661 -0.32123,0.2661 0,0 -0.3212,0.266 -0.3212,0.266 0,0 -0.32121,0.2661 -0.32121,0.2661 0,0 -0.32121,0.2661 -0.32121,0.2661 0,0 -0.32121,0.266 -0.32121,0.266 0,0 -0.32121,0.2661 -0.32121,0.2661 0,0 -0.32121,0.2661 -0.32121,0.2661 0,0 -0.3212,0.266 -0.3212,0.266 0,0 -0.32123,0.2661 -0.32123,0.2661 0,0 -0.3212,0.266 -0.3212,0.266 0,0 -0.3212,0.2661 -0.3212,0.2661 0,0 -0.32122,0.2661 -0.32122,0.2661 0,0 -0.32121,0.266 -0.32121,0.266 0,0 -0.3212,0.2661 -0.3212,0.2661 0,0 -0.32122,0.2661 -0.32122,0.2661 0,0 -0.3212,0.266 -0.3212,0.266 0,0 -0.32121,0.2661 -0.32121,0.2661 0,0 -0.32122,0.2661 -0.32122,0.2661 0,0 -0.3212,0.266 -0.3212,0.266 0,0 -0.32121,0.2661 -0.32121,0.2661 0,0 -0.32121,0.2661 -0.32121,0.2661 0,0 -0.32121,0.266 -0.32121,0.266 0,0 -0.32122,0.2661 -0.32122,0.2661 0,0 -0.3212,0.2661 -0.3212,0.2661 0,0 -0.32121,0.266 -0.32121,0.266 0,0 -0.32122,0.2661 -0.32122,0.2661 0,0 -0.3212,0.266 -0.3212,0.266 0,0 -0.3212,0.2661 -0.3212,0.2661 0,0 -0.32122,0.2661 -0.32122,0.2661 0,0 -0.32121,0.266 -0.32121,0.266 0,0 -0.32121,0.2661 -0.32121,0.2661 0,0 -0.32121,0.2661 -0.32121,0.2661 0,0 -0.3212,0.266 -0.3212,0.266 0,0 -0.32122,0.2661 -0.32122,0.2661 0,0 -0.32121,0.2661 -0.32121,0.2661 0,0 -0.3212,0.266 -0.3212,0.266 0,0 -0.32121,0.2661 -0.32121,0.2661 0,0 -0.32122,0.2661 -0.32122,0.2661 0,0 -0.3212,0.266 -0.3212,0.266 0,0 -0.32122,0.2661 -0.32122,0.2661 0,0 -0.3212,0.266 -0.3212,0.266 0,0 -0.32121,0.2661 -0.32121,0.2661 0,0 -0.32122,0.2661 -0.32122,0.2661 0,0 -0.3212,0.266 -0.3212,0.266 0,0 -0.32121,0.2661 -0.32121,0.2661 0,0 -0.32122,0.2661 -0.32122,0.2661 0,0 -0.3212,0.266 -0.3212,0.266 0,0 -0.32122,0.2661 -0.32122,0.2661 0,0 -0.3212,0.2661 -0.3212,0.2661 0,0 -0.32121,0.266 -0.32121,0.266 0,0 -0.32122,0.2661 -0.32122,0.2661 0,0 -0.3212,0.2661 -0.3212,0.2661 0,0 -0.3212,0.266 -0.3212,0.266 0,0 -0.32123,0.2661 -0.32123,0.2661 0,0 -0.3212,0.266 -0.3212,0.266 0,0 -0.3212,0.2661 -0.3212,0.2661 0,0 -0.32122,0.2661 -0.32122,0.2661 0,0 -0.32121,0.266 -0.32121,0.266 0,0 -0.32122,0.2661 -0.32122,0.2661 0,0 -0.3212,0.2661 -0.3212,0.2661 0,0 -0.3212,0.266 -0.3212,0.266 0,0 -0.32122,0.2661 -0.32122,0.2661 0,0 -0.32121,0.2661 -0.32121,0.2661 0,0 -0.3212,0.266 -0.3212,0.266 0,0 -0.32122,0.2661 -0.32122,0.2661 0,0 -0.3212,0.2661 -0.3212,0.2661 0,0 -0.32121,0.266 -0.32121,0.266 0,0 -0.32122,0.2661 -0.32122,0.2661 0,0 -0.3212,0.266 -0.3212,0.266 0,0 -0.32121,0.2661 -0.32121,0.2661 0,0 -0.32122,0.2661 -0.32122,0.2661 0,0 -0.3212,0.266 -0.3212,0.266 0,0 -0.32122,0.2661 -0.32122,0.2661 0,0 -0.3212,0.2661 -0.3212,0.2661 0,0 -0.32121,0.266 -0.32121,0.266 0,0 -0.32122,0.2661 -0.32122,0.2661 0,0 -0.3212,0.2661 -0.3212,0.2661 0,0 -0.3212,0.266 -0.3212,0.266 0,0 -0.32123,0.2661 -0.32123,0.2661 0,0 -0.3212,0.2661 -0.3212,0.2661 0,0 -0.3212,0.266 -0.3212,0.266 0,0 -0.32122,0.2661 -0.32122,0.2661 0,0 -0.32121,0.266 -0.32121,0.266 0,0 -0.3212,0.2661 -0.3212,0.2661 0,0 -0.32122,0.2661 -0.32122,0.2661 0,0 -0.3212,0.266 -0.3212,0.266 0,0 -0.32122,0.2661 -0.32122,0.2661 0,0 -0.32121,0.2661 -0.32121,0.2661 0,0 -0.3212,0.266 -0.3212,0.266 0,0 -0.32122,0.2661 -0.32122,0.2661 0,0 -0.32121,0.2661 -0.32121,0.2661 0,0 -0.3212,0.266 -0.3212,0.266 0,0 -0.32122,0.2661 -0.32122,0.2661 0,0 -0.3212,0.2661 -0.3212,0.2661 0,0 -0.32121,0.266 -0.32121,0.266 0,0 -0.32122,0.2661 -0.32122,0.2661 0,0 -0.3212,0.266 -0.3212,0.266 0,0 -0.32121,0.2661 -0.32121,0.2661 0,0 -0.32122,0.2661 -0.32122,0.2661 0,0 -0.3212,0.266 -0.3212,0.266 0,0 -0.32121,0.2661 -0.32121,0.2661 0,0 -0.32121,0.2661 -0.32121,0.2661 0,0 -2.56875,-3.3547 -2.56875,-3.3547 0,0 -2.68878,-3.2655 -2.68878,-3.2655 0,0 -2.36953,-2.677 -2.36953,-2.677 0,0 -2.94388,-3.0663 -2.94388,-3.0663 0,0 -2.60186,-2.5218 -2.60186,-2.5218 0,0 -2.70292,-2.4731 -2.70292,-2.4731 0,0 -3.31372,-2.7401 -3.31372,-2.7401 0,0 -2.93272,-2.3058 -2.93272,-2.3058 0,0 -3.52933,-2.518 -3.52933,-2.518 0,0 -3.15114,-2.1324 -3.15114,-2.1324 0,0 -3.50424,-2.154 -3.50424,-2.154 0,0 -3.35314,-1.9859 -3.35314,-1.9859 0,0 -4.34452,-2.2755 -4.34452,-2.2755 0,0 -3.53899,-1.751 -3.53899,-1.751 0,0 -3.62637,-1.6921 -3.62637,-1.6921 0,0 -3.71234,-1.6315 -3.71234,-1.6315 0,0 -4.57432,-1.769 -4.57432,-1.769 0,0 -3.85411,-1.4113 -3.85411,-1.4113 0,0 -3.92717,-1.3535 -3.92717,-1.3535 0,0 -4.68228,-1.4597 -4.68228,-1.4597 0,0 -4.04066,-1.1495 -4.04066,-1.1495 0,0 -4.10209,-1.096 -4.10209,-1.096 0,0 -4.16114,-1.0417 -4.16114,-1.0417 0,0 -4.79221,-1.0438 -4.79221,-1.0438 0,0 -4.2432,-0.8611 -4.2432,-0.8611 0,0 -4.29238,-0.8118 -4.29238,-0.8118 0,0 -4.83911,-0.7989 -4.83911,-0.7989 0,0 -4.35651,-0.6489 -4.35651,-0.6489 0,0 -4.39747,-0.6045 -4.39747,-0.6045 0,0 -4.87038,-0.5787 -4.87038,-0.5787 0,0 -4.44732,-0.4583 -4.44732,-0.4583 0,0 -4.48153,-0.4186 -4.48153,-0.4186 0,0 -4.8898,-0.3813 -4.8898,-0.3813 0,0 -4.52013,-0.2877 -4.52013,-0.2877 0,0 -4.5488,-0.2521 -4.5488,-0.2521 0,0 -4.90038,-0.2053 -4.90038,-0.2053 0,0 -4.57859,-0.1351 -4.57859,-0.1351 0,0 -4.60273,-0.103 -4.60273,-0.103 0,0 -4.90444,-0.049 -4.90444,-0.049 0,0 -4.49392,0.023 -4.49392,0.023 0,0 -4.90425,0.057 -4.90425,0.057 0,0 -4.90425,0.057 -4.90425,0.057 0,0 -4.42372,0.1235 -4.42372,0.1235 0,0 -4.90116,0.1837 -4.90116,0.1837 0,0 -4.90117,0.1836 -4.90117,0.1836 0,0 -4.48997,0.2234 -4.48997,0.2234 0,0 -4.89572,0.2955 -4.89572,0.2955 0,0 -4.89573,0.2955 -4.89573,0.2955 0,0 -4.54677,0.3146 -4.54677,0.3146 0,0 -4.88885,0.3935 -4.88885,0.3935 0,0 -4.88882,0.3936 -4.88882,0.3936 0,0 -4.59583,0.3982 -4.59583,0.3982 0,0 -4.88124,0.4787 -4.88124,0.4787 0,0 -4.88124,0.4788 -4.88124,0.4788 0,0 -4.63853,0.4747 -4.63853,0.4747 0,0 -4.87353,0.552 -4.87353,0.552 0,0 -4.87353,0.5519 -4.87353,0.5519 0,0 -4.67626,0.5441 -4.67626,0.5441 0,0 -4.86616,0.6137 -4.86616,0.6137 0,0 -4.86613,0.6138 -4.86613,0.6138 0,0 -4.71028,0.6061 -4.71028,0.6061 0,0 -4.85951,0.6644 -4.85951,0.6644 0,0 -4.8595,0.6643 -4.8595,0.6643 0,0 -4.70023,0.6581 -4.70023,0.6581 0,0 -4.85187,0.718 -4.85187,0.718 0,0 -4.85187,0.7179 -4.85187,0.7179 0,0 -4.85186,0.7179 -4.85186,0.7179 0,0 -4.85188,0.7179 -4.85188,0.7179 0,0 -4.85185,0.7179 -4.85185,0.7179 0,0 -4.75983,0.7246 -4.75983,0.7246 0,0 -4.84691,0.7508 -4.84691,0.7508 0,0 -4.8469,0.7508 -4.8469,0.7508 0,0 -4.84692,0.7509 -4.84692,0.7509 0,0 -4.84692,0.7508 -4.84692,0.7508 0,0 -4.90059,0.753 -4.90059,0.753 0,0 -4.85013,0.7297 -4.85013,0.7297 0,0 -4.85011,0.7296 -4.85011,0.7296 0,0 -4.85012,0.7297 -4.85012,0.7297 0,0 -4.85012,0.7296 -4.85012,0.7296 0,0 -4.99131,0.7261 -4.99131,0.7261 0,0 -4.85873,0.6698 -4.85873,0.6698 0,0 -5.01661,0.6793 -5.01661,0.6793 0,0 -4.86793,0.5991 -4.86793,0.5991 0,0 -5.08679,0.6168 -5.08679,0.6168 0,0 -4.8794,0.4966 -4.8794,0.4966 0,0 -5.17921,0.502 -5.17921,0.502 0,0 -4.89186,0.3515 -4.89186,0.3515 0,0 -5.28864,0.2945 -5.28864,0.2945 0,0 -5.31146,0.04 -5.31146,0.04 0,0 -5.67434,-0.2349 -5.67434,-0.2349 0,0 -5.24293,-0.5272 -5.24293,-0.5272 0,0 -5.19658,-0.7708 -5.19658,-0.7708 0,0 -5.1403,-1.0045 -5.1403,-1.0045 0,0 -5.07545,-1.2271 -5.07545,-1.2271 0,0 -5.27133,-1.5404 -5.27133,-1.5404 0,0 -4.89705,-1.6714 -4.89705,-1.6714 0,0 -4.81444,-1.8543 -4.81444,-1.8543 0,0 -4.72909,-2.0254 -4.72909,-2.0254 0,0 -4.82676,-2.2916 -4.82676,-2.2916 0,0 -4.52762,-2.3557 -4.52762,-2.3557 0,0 -4.44027,-2.4911 -4.44027,-2.4911 0,0 -4.35358,-2.617 -4.35358,-2.617 0,0 -4.391501,-2.8256 -4.391501,-2.8256 0,0 -4.16184,-2.8566 -4.16184,-2.8566 0,0 -4.08035,-2.9558 -4.08035,-2.9558 0,0 -4.0288,-3.1094 -4.0288,-3.1094 0,0 -4.01475,-3.1816 -4.01475,-3.1816 0,0 -3.73873,-3.1742 -3.73873,-3.1742 0,0 -3.8315,-3.3566 -3.8315,-3.3566 0,0 -3.63048,-3.2975 -3.63048,-3.2975 0,0 -3.65986,-3.5079 -3.65986,-3.5079 0,0 -3.59702,-3.5411 -3.59702,-3.5411 0,0 -3.4297,-3.506 -3.4297,-3.506 0,0 -3.44142,-3.6669 -3.44142,-3.6669 0,0 -3.3828,-3.6987 -3.3828,-3.6987 0,0 -3.24962,-3.6736 -3.24962,-3.6736 0,0 -3.24037,-3.8056 -3.24037,-3.8056 0,0 -3.18386,-3.8366 -3.18386,-3.8366 0,0 -3.12569,-3.8705 -3.12569,-3.8705 0,0 -3.01522,-3.8684 -3.01522,-3.8684 0,0 -2.99623,-3.9598 -2.99623,-3.9598 0,0 -2.93489,-4.0246 -2.93489,-4.0246 0,0 -2.85005,-3.9915 -2.85005,-3.9915 0,0 -2.85028,-4.0889 -2.85028,-4.0889 0,0 -2.7328,-4.0726 -2.7328,-4.0726 0,0 -2.70746,-4.1625 -2.70746,-4.1625 0,0 -2.63684,-4.1918 -2.63684,-4.1918 0,0 -2.53048,-4.243 -2.53048,-4.243 0,0 0,0 0,0"
           style="fill:#000000;fill-rule:evenodd;stroke:#000000;stroke-width:1px;stroke-linecap:butt;stroke-linejoin:miter;stroke-opacity:1"
           inkscape:connector-curvature="0" />
        <path
           inkscape:transform-center-y="115.12074"
           inkscape:transform-center-x="-282.67357"
           id="path6723"
           d="m 14.593799,1060.069 c 0,0 3.55436,3.4295 3.55436,3.4295 0,0 3.63669,3.3468 3.63669,3.3468 0,0 3.68455,3.2896 3.68455,3.2896 0,0 3.70854,3.2115 3.70854,3.2115 0,0 3.78241,3.1652 3.78241,3.1652 0,0 3.80033,3.1023 3.80033,3.1023 0,0 3.83676,3.0733 3.83676,3.0733 0,0 3.88515,3 3.88515,3 0,0 3.92735,2.94 3.92735,2.94 0,0 3.97408,2.8721 3.97408,2.8721 0,0 4.00631,2.8155 4.00631,2.8155 0,0 4.03479,2.7611 4.03479,2.7611 0,0 4.10234,2.6904 4.10234,2.6904 0,0 4.12289,2.6102 4.12289,2.6102 0,0 4.14592,2.553 4.14592,2.553 0,0 4.23203,2.4813 4.23203,2.4813 0,0 4.2332,2.3791 4.2332,2.3791 0,0 4.24992,2.3184 4.24992,2.3184 0,0 4.37098,2.2273 4.37098,2.2273 0,0 4.33444,2.1155 4.33444,2.1155 0,0 4.44301,2.0799 4.44301,2.0799 0,0 4.416791,1.8875 4.416791,1.8875 0,0 4.44726,1.8385 4.44726,1.8385 0,0 4.52406,1.7093 4.52406,1.7093 0,0 4.55962,1.5907 4.55962,1.5907 0,0 4.50905,1.4273 4.50905,1.4273 0,0 4.6232,1.3089 4.6232,1.3089 0,0 4.65167,1.1663 4.65167,1.1663 0,0 4.677,1.0156 4.677,1.0156 0,0 4.56165,0.8223 4.56165,0.8223 0,0 4.70717,0.6615 4.70717,0.6615 0,0 4.71666,0.4834 4.71666,0.4834 0,0 4.71966,0.2968 4.71966,0.2968 0,0 4.51311,0.089 4.51311,0.089 0,0 4.6876,-0.1287 4.6876,-0.1287 0,0 4.66316,-0.3386 4.66316,-0.3386 0,0 4.62869,-0.5539 4.62869,-0.5539 0,0 4.58358,-0.7735 4.58358,-0.7735 0,0 4.24001,-0.9789 4.24001,-0.9789 0,0 4.43814,-1.2411 4.43814,-1.2411 0,0 4.3796,-1.4605 4.3796,-1.4605 0,0 4.62844,-1.626 4.62844,-1.626 0,0 4.3762,-1.6651 4.3762,-1.6651 0,0 4.57823,-1.7628 4.57823,-1.7628 0,0 4.38788,-1.7898 4.38788,-1.7898 0,0 4.54025,-1.8585 4.54025,-1.8585 0,0 4.40431,-1.8666 4.40431,-1.8666 0,0 4.51278,-1.9244 4.51278,-1.9244 0,0 4.3974,-1.914 4.3974,-1.914 0,0 4.48871,-1.9799 4.48871,-1.9799 0,0 4.48871,-1.9799 4.48871,-1.9799 0,0 4.4887,-1.9798 4.4887,-1.9798 0,0 4.48872,-1.9799 4.48872,-1.9799 0,0 4.44246,-1.9764 4.44246,-1.9764 0,0 4.48005,-1.9995 4.48005,-1.9995 0,0 4.48005,-1.9995 4.48005,-1.9995 0,0 4.48003,-1.9994 4.48003,-1.9994 0,0 4.48005,-1.9995 4.48005,-1.9995 0,0 4.5548,-2.0184 4.5548,-2.0184 0,0 4.49348,-1.969 4.49348,-1.969 0,0 4.49348,-1.9691 4.49348,-1.9691 0,0 4.49348,-1.969 4.49348,-1.969 0,0 4.49348,-1.969 4.49348,-1.969 0,0 4.4935,-1.969 4.4935,-1.969 0,0 4.63481,-1.9889 4.63481,-1.9889 0,0 4.51495,-1.9194 4.51495,-1.9194 0,0 4.51494,-1.9193 4.51494,-1.9193 0,0 4.65587,-1.9367 4.65587,-1.9367 0,0 4.53465,-1.8723 4.53465,-1.8723 0,0 4.53469,-1.8722 4.53469,-1.8722 0,0 4.71445,-1.8946 4.71445,-1.8946 0,0 4.55801,-1.8146 4.55801,-1.8146 0,0 4.55804,-1.8145 4.55804,-1.8145 0,0 4.77968,-1.8444 4.77968,-1.8444 0,0 4.58472,-1.746 4.58472,-1.746 0,0 4.58475,-1.746 4.58475,-1.746 0,0 4.85216,-1.7859 4.85216,-1.7859 0,0 4.61447,-1.6657 4.61447,-1.6657 0,0 4.61449,-1.6657 4.61449,-1.6657 0,0 4.9328,-1.7181 4.9328,-1.7181 0,0 4.64692,-1.5729 4.64692,-1.5729 0,0 4.6469,-1.5729 4.6469,-1.5729 0,0 5.02276,-1.639 5.02276,-1.639 0,0 4.68159,-1.4664 4.68159,-1.4664 0,0 4.68158,-1.4665 4.68158,-1.4665 0,0 5.12332,-1.5462 5.12332,-1.5462 0,0 4.71792,-1.3448 4.71792,-1.3448 0,0 4.71793,-1.3447 4.71793,-1.3447 0,0 5.09845,-1.4138 5.09845,-1.4138 0,0 4.74584,-1.2431 4.74584,-1.2431 0,0 5.03534,-1.2538 5.03534,-1.2538 0,0 5.06766,-1.218 5.06766,-1.218 0,0 4.78313,-1.0908 4.78313,-1.0908 0,0 5.12024,-1.0972 5.12024,-1.0972 0,0 5.15611,-1.0535 5.15611,-1.0535 0,0 4.81924,-0.9181 4.81924,-0.9181 0,0 5.21124,-0.9132 5.21124,-0.9132 0,0 5.25061,-0.8594 5.25061,-0.8594 0,0 4.85239,-0.7226 4.85239,-0.7226 0,0 5.30702,-0.6957 5.30702,-0.6957 0,0 5.34944,-0.6291 5.34944,-0.6291 0,0 4.88015,-0.5018 4.88015,-0.5018 0,0 5.40497,-0.4379 5.40497,-0.4379 0,0 5.44927,-0.3554 5.44927,-0.3554 0,0 4.89931,-0.2532 4.89931,-0.2532 0,0 5.50049,-0.1319 5.50049,-0.1319 0,0 5.5445,-0.03 5.5445,-0.03 0,0 5.58936,0.079 5.58936,0.079 0,0 4.90259,0.1771 4.90259,0.1771 0,0 5.62632,0.3548 5.62632,0.3548 0,0 5.66562,0.4879 5.66562,0.4879 0,0 4.87977,0.504 4.87977,0.504 0,0 5.68204,0.8056 5.68204,0.8056 0,0 5.70957,0.9651 5.70957,0.9651 0,0 5.73273,1.1342 5.73273,1.1342 0,0 4.79126,1.0533 4.79126,1.0533 0,0 5.70263,1.5102 5.70263,1.5102 0,0 5.46099,1.5836 5.46099,1.5836 0,0 5.68153,1.9064 5.68153,1.9064 0,0 5.13236,1.8882 5.13236,1.8882 0,0 5.60516,2.3279 5.60516,2.3279 0,0 5.01924,2.262 5.01924,2.262 0,0 5.48241,2.7625 5.48241,2.7625 0,0 5.41197,2.9824 5.41197,2.9824 0,0 4.76569,2.8566 4.76569,2.8566 0,0 5.21288,3.4127 5.21288,3.4127 0,0 4.55253,3.2238 4.55253,3.2238 0,0 4.44854,3.3757 4.44854,3.3757 0,0 -0.26806,0.3195 -0.26806,0.3195 0,0 -0.26805,0.3196 -0.26805,0.3196 0,0 -0.26806,0.3195 -0.26806,0.3195 0,0 -0.26806,0.3196 -0.26806,0.3196 0,0 -0.26805,0.3195 -0.26805,0.3195 0,0 -0.26805,0.3196 -0.26805,0.3196 0,0 -0.26806,0.3195 -0.26806,0.3195 0,0 -0.26805,0.3196 -0.26805,0.3196 0,0 -0.26805,0.3195 -0.26805,0.3195 0,0 -0.26806,0.3196 -0.26806,0.3196 0,0 -0.26806,0.3195 -0.26806,0.3195 0,0 -0.26805,0.3196 -0.26805,0.3196 0,0 -0.26806,0.3195 -0.26806,0.3195 0,0 -0.26805,0.3196 -0.26805,0.3196 0,0 -0.26807,0.3195 -0.26807,0.3195 0,0 -0.26805,0.3196 -0.26805,0.3196 0,0 -0.26805,0.3195 -0.26805,0.3195 0,0 -0.26805,0.3196 -0.26805,0.3196 0,0 -0.26806,0.3195 -0.26806,0.3195 0,0 -0.26805,0.3196 -0.26805,0.3196 0,0 -0.26806,0.3195 -0.26806,0.3195 0,0 -0.26805,0.3196 -0.26805,0.3196 0,0 -0.26806,0.3195 -0.26806,0.3195 0,0 -0.26806,0.3196 -0.26806,0.3196 0,0 -0.26805,0.3195 -0.26805,0.3195 0,0 -0.26805,0.3196 -0.26805,0.3196 0,0 -0.26806,0.3195 -0.26806,0.3195 0,0 -0.26805,0.3196 -0.26805,0.3196 0,0 -0.26806,0.3195 -0.26806,0.3195 0,0 -0.26805,0.3196 -0.26805,0.3196 0,0 -0.26806,0.3195 -0.26806,0.3195 0,0 -0.26806,0.3196 -0.26806,0.3196 0,0 -0.26805,0.3195 -0.26805,0.3195 0,0 -0.26805,0.3196 -0.26805,0.3196 0,0 -0.26807,0.3195 -0.26807,0.3195 0,0 -0.26805,0.3196 -0.26805,0.3196 0,0 -0.26805,0.3195 -0.26805,0.3195 0,0 -0.26805,0.3196 -0.26805,0.3196 0,0 -0.26806,0.3195 -0.26806,0.3195 0,0 -0.26805,0.3196 -0.26805,0.3196 0,0 -0.26806,0.3195 -0.26806,0.3195 0,0 -0.26805,0.3196 -0.26805,0.3196 0,0 -0.26806,0.3195 -0.26806,0.3195 0,0 -0.26806,0.3196 -0.26806,0.3196 0,0 -0.26804,0.3195 -0.26804,0.3195 0,0 -0.26806,0.3196 -0.26806,0.3196 0,0 -0.26805,0.3195 -0.26805,0.3195 0,0 -0.26806,0.3196 -0.26806,0.3196 0,0 -0.26806,0.3195 -0.26806,0.3195 0,0 -0.26805,0.3196 -0.26805,0.3196 0,0 -0.26806,0.3195 -0.26806,0.3195 0,0 -0.26806,0.3196 -0.26806,0.3196 0,0 -0.26805,0.3195 -0.26805,0.3195 0,0 -0.26805,0.3196 -0.26805,0.3196 0,0 -0.26806,0.3195 -0.26806,0.3195 0,0 -0.26806,0.3196 -0.26806,0.3196 0,0 -0.26805,0.3195 -0.26805,0.3195 0,0 -0.26805,0.3196 -0.26805,0.3196 0,0 -0.26805,0.3195 -0.26805,0.3195 0,0 -0.26807,0.3196 -0.26807,0.3196 0,0 -0.26805,0.3195 -0.26805,0.3195 0,0 -0.26805,0.3196 -0.26805,0.3196 0,0 -0.26805,0.3195 -0.26805,0.3195 0,0 -0.26806,0.3196 -0.26806,0.3196 0,0 -0.26805,0.3195 -0.26805,0.3195 0,0 -0.26806,0.3196 -0.26806,0.3196 0,0 -0.26805,0.3195 -0.26805,0.3195 0,0 -0.26806,0.3196 -0.26806,0.3196 0,0 -0.26806,0.3195 -0.26806,0.3195 0,0 -0.26805,0.3196 -0.26805,0.3196 0,0 -0.26806,0.3195 -0.26806,0.3195 0,0 -0.26806,0.3196 -0.26806,0.3196 0,0 -0.26805,0.3195 -0.26805,0.3195 0,0 -0.26806,0.3196 -0.26806,0.3196 0,0 -0.26804,0.3195 -0.26804,0.3195 0,0 -0.26806,0.3196 -0.26806,0.3196 0,0 -0.26806,0.3195 -0.26806,0.3195 0,0 -0.26805,0.3196 -0.26805,0.3196 0,0 -0.26805,0.3195 -0.26805,0.3195 0,0 -0.26807,0.3196 -0.26807,0.3196 0,0 -0.26805,0.3195 -0.26805,0.3195 0,0 -0.26805,0.3196 -0.26805,0.3196 0,0 -0.26805,0.3195 -0.26805,0.3195 0,0 -0.26806,0.3196 -0.26806,0.3196 0,0 -0.26806,0.3195 -0.26806,0.3195 0,0 -0.26805,0.3196 -0.26805,0.3196 0,0 -0.26805,0.3195 -0.26805,0.3195 0,0 -0.26806,0.3196 -0.26806,0.3196 0,0 -0.26806,0.3195 -0.26806,0.3195 0,0 -0.26805,0.3196 -0.26805,0.3196 0,0 -0.26806,0.3195 -0.26806,0.3195 0,0 -0.26805,0.3196 -0.26805,0.3196 0,0 -0.26806,0.3195 -0.26806,0.3195 0,0 -0.26805,0.3196 -0.26805,0.3196 0,0 -0.26805,0.3195 -0.26805,0.3195 0,0 -0.26806,0.3196 -0.26806,0.3196 0,0 -0.26806,0.3195 -0.26806,0.3195 0,0 -0.26805,0.3196 -0.26805,0.3196 0,0 -0.26806,0.3196 -0.26806,0.3196 0,0 -0.26805,0.3195 -0.26805,0.3195 0,0 -0.26806,0.3195 -0.26806,0.3195 0,0 -0.26805,0.3196 -0.26805,0.3196 0,0 -0.26805,0.3195 -0.26805,0.3195 0,0 -0.26806,0.3196 -0.26806,0.3196 0,0 -0.26806,0.3196 -0.26806,0.3196 0,0 -0.26805,0.3195 -0.26805,0.3195 0,0 -0.26805,0.3195 -0.26805,0.3195 0,0 -0.26806,0.3196 -0.26806,0.3196 0,0 -0.26806,0.3195 -0.26806,0.3195 0,0 -0.26805,0.3196 -0.26805,0.3196 0,0 -0.26806,0.3196 -0.26806,0.3196 0,0 -0.26805,0.3195 -0.26805,0.3195 0,0 -0.26806,0.3196 -0.26806,0.3196 0,0 -0.26805,0.3195 -0.26805,0.3195 0,0 -0.26805,0.3196 -0.26805,0.3196 0,0 -0.26806,0.3195 -0.26806,0.3195 0,0 -0.26806,0.3196 -0.26806,0.3196 0,0 -0.26805,0.3195 -0.26805,0.3195 0,0 -0.26806,0.3196 -0.26806,0.3196 0,0 -0.26805,0.3195 -0.26805,0.3195 0,0 -0.26806,0.3196 -0.26806,0.3196 0,0 -0.26805,0.3195 -0.26805,0.3195 0,0 -0.26805,0.3196 -0.26805,0.3196 0,0 -0.26806,0.3195 -0.26806,0.3195 0,0 -0.26806,0.3196 -0.26806,0.3196 0,0 -0.26805,0.3195 -0.26805,0.3195 0,0 -0.26806,0.3196 -0.26806,0.3196 0,0 -0.26805,0.3195 -0.26805,0.3195 0,0 -3.13078,-2.8373 -3.13078,-2.8373 0,0 -3.23281,-2.7281 -3.23281,-2.7281 0,0 -2.81278,-2.2065 -2.81278,-2.2065 0,0 -3.44788,-2.4862 -3.44788,-2.4862 0,0 -3.01337,-2.0121 -3.01337,-2.0121 0,0 -3.10404,-1.9461 -3.10404,-1.9461 0,0 -3.75292,-2.0986 -3.75292,-2.0986 0,0 -3.29996,-1.7401 -3.29996,-1.7401 0,0 -3.92502,-1.8414 -3.92502,-1.8414 0,0 -3.48359,-1.5302 -3.48359,-1.5302 0,0 -3.83479,-1.4878 -3.83479,-1.4878 0,0 -3.6559,-1.3497 -3.6559,-1.3497 0,0 -4.68324,-1.4562 -4.68324,-1.4562 0,0 -3.79641,-1.0851 -3.79641,-1.0851 0,0 -3.87178,-1.0116 -3.87178,-1.0116 0,0 -3.94542,-0.9363 -3.94542,-0.9363 0,0 -4.81807,-0.9165 -4.81807,-0.9165 0,0 -4.04522,-0.6943 -4.04522,-0.6943 0,0 -4.1067,-0.6243 -4.1067,-0.6243 0,0 -4.86857,-0.5928 -4.86857,-0.5928 0,0 -4.18159,-0.4031 -4.18159,-0.4031 0,0 -4.23239,-0.3395 -4.23239,-0.3395 0,0 -4.28069,-0.2755 -4.28069,-0.2755 0,0 -4.90185,-0.164 -4.90185,-0.164 0,0 -4.32888,-0.083 -4.32888,-0.083 0,0 -4.36841,-0.026 -4.36841,-0.026 0,0 -4.90387,0.085 -4.90387,0.085 0,0 -4.40214,0.1462 -4.40214,0.1462 0,0 -4.43445,0.1971 -4.43445,0.1971 0,0 -4.89497,0.3077 -4.89497,0.3077 0,0 -4.45715,0.3499 -4.45715,0.3499 0,0 -4.48366,0.3952 -4.48366,0.3952 0,0 -4.87856,0.5053 -4.87856,0.5053 0,0 -4.49806,0.5308 -4.49806,0.5308 0,0 -4.51984,0.5712 -4.51984,0.5712 0,0 -4.85725,0.6803 -4.85725,0.6803 0,0 -4.52809,0.6915 -4.52809,0.6915 0,0 -4.54605,0.7274 -4.54605,0.7274 0,0 -4.83304,0.8353 -4.83304,0.8353 0,0 -4.41632,0.8319 -4.41632,0.8319 0,0 -4.81388,0.9388 -4.81388,0.9388 0,0 -4.81387,0.9389 -4.81387,0.9389 0,0 -4.32919,0.918 -4.32919,0.918 0,0 -4.788,1.0631 -4.788,1.0631 0,0 -4.788,1.0631 -4.788,1.0631 0,0 -4.37638,1.0281 -4.37638,1.0281 0,0 -4.7625,1.1722 -4.7625,1.1722 0,0 -4.76251,1.1721 -4.76251,1.1721 0,0 -4.41583,1.1281 -4.41583,1.1281 0,0 -4.73809,1.2674 -4.73809,1.2674 0,0 -4.73807,1.2673 -4.73807,1.2673 0,0 -4.44902,1.2192 -4.44902,1.2192 0,0 -4.71527,1.3498 -4.71527,1.3498 0,0 -4.71526,1.3499 -4.71526,1.3499 0,0 -4.47726,1.302 -4.47726,1.302 0,0 -4.6945,1.4205 -4.6945,1.4205 0,0 -4.69449,1.4204 -4.69449,1.4204 0,0 -4.50188,1.3772 -4.50188,1.3772 0,0 -4.67613,1.4798 -4.67613,1.4798 0,0 -4.67611,1.4799 -4.67611,1.4799 0,0 -4.52416,1.4443 -4.52416,1.4443 0,0 -4.66047,1.5285 -4.66047,1.5285 0,0 -4.66047,1.5284 -4.66047,1.5284 0,0 -4.50492,1.4937 -4.50492,1.4937 0,0 -4.64331,1.5797 -4.64331,1.5797 0,0 -4.64331,1.5798 -4.64331,1.5798 0,0 -4.64331,1.5798 -4.64331,1.5798 0,0 -4.64333,1.5797 -4.64333,1.5797 0,0 -4.6433,1.5798 -4.6433,1.5798 0,0 -4.55158,1.5697 -4.55158,1.5697 0,0 -4.63251,1.6113 -4.63251,1.6113 0,0 -4.6325,1.6112 -4.6325,1.6112 0,0 -4.63252,1.6113 -4.63252,1.6113 0,0 -4.63252,1.6112 -4.63252,1.6112 0,0 -4.68492,1.6231 -4.68492,1.6231 0,0 -4.63949,1.591 -4.63949,1.591 0,0 -4.63947,1.591 -4.63947,1.591 0,0 -4.63948,1.591 -4.63948,1.591 0,0 -4.63949,1.591 -4.63949,1.591 0,0 -4.779,1.6129 -4.779,1.6129 0,0 -4.65873,1.5337 -4.65873,1.5337 0,0 -4.81232,1.5714 -4.81232,1.5714 0,0 -4.6805,1.4658 -4.6805,1.4658 0,0 -4.89261,1.5226 -4.89261,1.5226 0,0 -4.71023,1.367 -4.71023,1.367 0,0 -5.0042,1.4263 -5.0042,1.4263 0,0 -4.74861,1.2266 -4.74861,1.2266 0,0 -5.14918,1.2419 -5.14918,1.2419 0,0 -5.21745,0.9957 -5.21745,0.9957 0,0 -5.62389,0.7907 -5.62389,0.7907 0,0 -5.25217,0.4254 -5.25217,0.4254 0,0 -5.25044,0.1774 -5.25044,0.1774 0,0 -5.23715,-0.062 -5.23715,-0.062 0,0 -5.21345,-0.2932 -5.21345,-0.2932 0,0 -5.46253,-0.5661 -5.46253,-0.5661 0,0 -5.11795,-0.7624 -5.11795,-0.7624 0,0 -5.06963,-0.9571 -5.06963,-0.9571 0,0 -5.01649,-1.1409 -5.01649,-1.1409 0,0 -5.16047,-1.3851 -5.16047,-1.3851 0,0 -4.87778,-1.502 -4.87778,-1.502 0,0 -4.81623,-1.6509 -4.81623,-1.6509 0,0 -4.75363,-1.7903 -4.75363,-1.7903 0,0 -4.82846,-1.9887 -4.82846,-1.9887 0,0 -4.60817,-2.0606 -4.60817,-2.0606 0,0 -4.54588,-2.1729 -4.54588,-2.1729 0,0 -4.522801,-2.3332 -4.522801,-2.3332 0,0 -4.52197,-2.4067 -4.52197,-2.4067 0,0 -4.24916,-2.4492 -4.24916,-2.4492 0,0 -4.37324,-2.6118 -4.37324,-2.6118 0,0 -4.16487,-2.59 -4.16487,-2.59 0,0 -4.23164,-2.7916 -4.23164,-2.7916 0,0 -4.17583,-2.8356 -4.17583,-2.8356 0,0 -4.0049,-2.8312 -4.0049,-2.8312 0,0 -4.04541,-2.9873 -4.04541,-2.9873 0,0 -3.99348,-3.0292 -3.99348,-3.0292 0,0 -3.85795,-3.0285 -3.85795,-3.0285 0,0 -3.8726,-3.1599 -3.8726,-3.1599 0,0 -3.82261,-3.2006 -3.82261,-3.2006 0,0 -3.7715,-3.2445 -3.7715,-3.2445 0,0 -3.66244,-3.2623 -3.66244,-3.2623 0,0 -3.66024,-3.3556 -3.66024,-3.3556 0,0 -3.61157,-3.4305 -3.61157,-3.4305 0,0 -3.52214,-3.413 -3.52214,-3.413 0,0 -3.5399,-3.5089 -3.5399,-3.5089 0,0 -3.42142,-3.514 -3.42142,-3.514 0,0 -3.41268,-3.607 -3.41268,-3.607 0,0 -3.34848,-3.6485 -3.34848,-3.6485 0,0 -3.25308,-3.718 -3.25308,-3.718 0,0 0,0 0,0"
           style="fill:#000000;fill-rule:evenodd;stroke:#000000;stroke-width:1px;stroke-linecap:butt;stroke-linejoin:miter;stroke-opacity:1"
           inkscape:connector-curvature="0" />
        <path
           style="fill:#000000;fill-rule:evenodd;stroke:#000000;stroke-width:1px;stroke-linecap:butt;stroke-linejoin:miter;stroke-opacity:1"
           d="m 14.641419,1059.9373 c 0,0 4.16046,2.662 4.16046,2.662 0,0 4.22485,2.5645 4.22485,2.5645 0,0 4.2605,2.4991 4.2605,2.4991 0,0 4.26865,2.4178 4.26865,2.4178 0,0 4.33194,2.3579 4.33194,2.3579 0,0 4.33712,2.2926 4.33712,2.2926 0,0 4.3671,2.257 4.3671,2.257 0,0 4.40012,2.1756 4.40012,2.1756 0,0 4.42967,2.1086 4.42967,2.1086 0,0 4.46209,2.0327 4.46209,2.0327 0,0 4.48254,1.9708 4.48254,1.9708 0,0 4.49974,1.912 4.49974,1.912 0,0 4.55205,1.8293 4.55205,1.8293 0,0 4.55638,1.7466 4.55638,1.7466 0,0 4.56769,1.686 4.56769,1.686 0,0 4.63799,1.5988 4.63799,1.5988 0,0 4.61898,1.4983 4.61898,1.4983 0,0 4.62343,1.4356 4.62343,1.4356 0,0 4.72417,1.3224 4.72417,1.3224 0,0 4.666301,1.2199 4.666301,1.2199 0,0 4.76575,1.1637 4.76575,1.1637 0,0 4.70211,0.9801 4.70211,0.9801 0,0 4.72234,0.9262 4.72234,0.9262 0,0 4.77216,0.7843 4.77216,0.7843 0,0 4.78368,0.6611 4.78368,0.6611 0,0 4.70188,0.5108 4.70188,0.5108 0,0 4.79047,0.3723 4.79047,0.3723 0,0 4.79028,0.2268 4.79028,0.2268 0,0 4.78542,0.074 4.78542,0.074 0,0 4.63426,-0.093 4.63426,-0.093 0,0 4.74523,-0.279 4.74523,-0.279 0,0 4.71942,-0.4555 4.71942,-0.4555 0,0 4.68563,-0.639 4.68563,-0.639 0,0 4.44211,-0.8023 4.44211,-0.8023 0,0 4.57033,-1.0498 4.57033,-1.0498 0,0 4.50502,-1.2508 4.50502,-1.2508 0,0 4.4288,-1.4551 4.4288,-1.4551 0,0 4.34131,-1.6615 4.34131,-1.6615 0,0 3.96398,-1.7952 3.96398,-1.7952 0,0 4.1066,-2.0913 4.1066,-2.0913 0,0 4.00593,-2.2949 4.00593,-2.2949 0,0 4.21731,-2.5061 4.21731,-2.5061 0,0 3.9623,-2.4947 3.9623,-2.4947 0,0 4.14114,-2.6304 4.14114,-2.6304 0,0 3.94917,-2.6193 3.94917,-2.6193 0,0 4.08503,-2.7167 4.08503,-2.7167 0,0 3.95015,-2.6979 3.95015,-2.6979 0,0 4.04513,-2.7758 4.04513,-2.7758 0,0 3.93404,-2.743 3.93404,-2.743 0,0 4.01059,-2.8255 4.01059,-2.8255 0,0 4.01057,-2.8256 4.01057,-2.8256 0,0 4.01059,-2.8255 4.01059,-2.8255 0,0 4.01058,-2.8256 4.01058,-2.8256 0,0 3.96594,-2.8129 3.96594,-2.8129 0,0 3.99823,-2.8431 3.99823,-2.8431 0,0 3.99823,-2.843 3.99823,-2.843 0,0 3.99821,-2.8431 3.99821,-2.8431 0,0 3.99823,-2.843 3.99823,-2.843 0,0 4.06779,-2.8763 4.06779,-2.8763 0,0 4.0174,-2.8158 4.0174,-2.8158 0,0 4.0174,-2.8159 4.0174,-2.8159 0,0 4.0174,-2.8158 4.0174,-2.8158 0,0 4.0174,-2.8159 4.0174,-2.8159 0,0 4.01741,-2.8158 4.01741,-2.8158 0,0 4.15205,-2.8632 4.15205,-2.8632 0,0 4.04823,-2.7713 4.04823,-2.7713 0,0 4.04824,-2.7714 4.04824,-2.7714 0,0 4.18295,-2.8162 4.18295,-2.8162 0,0 4.07685,-2.729 4.07685,-2.729 0,0 4.07687,-2.7291 4.07687,-2.7291 0,0 4.2487,-2.7863 4.2487,-2.7863 0,0 4.1111,-2.6772 4.1111,-2.6772 0,0 4.11113,-2.6771 4.11113,-2.6771 0,0 4.32254,-2.7501 4.32254,-2.7501 0,0 4.1508,-2.61514 4.1508,-2.61514 0,0 4.15083,-2.61513 4.15083,-2.61513 0,0 4.40513,-2.70698 4.40513,-2.70698 0,0 4.19578,-2.54231 4.19578,-2.54231 0,0 4.1958,-2.54233 4.1958,-2.54233 0,0 4.49756,-2.65635 4.49756,-2.65635 0,0 4.24588,-2.45772 4.24588,-2.45772 0,0 4.24587,-2.45772 4.24587,-2.45772 0,0 4.60132,-2.59662 4.60132,-2.59662 0,0 4.30086,-2.36014 4.30086,-2.36014 0,0 4.30084,-2.36013 4.30084,-2.36013 0,0 4.7182,-2.52544 4.7182,-2.52544 0,0 4.36045,-2.24805 4.36045,-2.24805 0,0 4.36046,-2.24804 4.36046,-2.24804 0,0 4.71992,-2.39065 4.71992,-2.39065 0,0 4.40784,-2.15388 4.40784,-2.15388 0,0 4.68956,-2.22146 4.68956,-2.22146 0,0 4.72832,-2.19261 4.72832,-2.19261 0,0 4.47442,-2.01193 4.47442,-2.01193 0,0 4.80365,-2.08463 4.80365,-2.08463 0,0 4.84743,-2.04883 4.84743,-2.04883 0,0 4.54385,-1.84972 4.54385,-1.84972 0,0 4.92914,-1.9221 4.92914,-1.9221 0,0 4.97834,-1.87713 4.97834,-1.87713 0,0 4.61486,-1.66458 4.61486,-1.66458 0,0 5.0659,-1.72775 5.0659,-1.72775 0,0 5.12059,-1.6709 5.12059,-1.6709 0,0 4.68559,-1.45358 4.68559,-1.45358 0,0 5.21273,-1.4943 5.21273,-1.4943 0,0 5.2724,-1.42222 5.2724,-1.42222 0,0 4.75338,-1.21353 4.75338,-1.21353 0,0 5.36665,-1.21321 5.36665,-1.21321 0,0 5.42986,-1.12204 5.42986,-1.12204 0,0 5.4953,-1.02412 5.4953,-1.02412 0,0 4.84137,-0.79244 4.84137,-0.79244 0,0 5.58592,-0.7608 5.58592,-0.7608 0,0 5.65069,-0.638 5.65069,-0.638 0,0 4.8834,-0.46744 4.8834,-0.46744 0,0 5.72938,-0.32979 5.72938,-0.32979 0,0 5.78781,-0.17884 5.78781,-0.17884 0,0 5.84382,-0.0177 5.84382,-0.0177 0,0 4.90486,0.0885 4.90486,0.0885 0,0 5.88841,0.35691 5.88841,0.35691 0,0 5.66596,0.47647 5.66596,0.47647 0,0 5.94578,0.74955 5.94578,0.74955 0,0 5.40381,0.83988 5.40381,0.83988 0,0 5.95395,1.17776 5.95395,1.17776 0,0 5.36657,1.2287 5.36657,1.2287 0,0 5.91925,1.628 5.91925,1.628 0,0 5.89354,1.85759 5.89354,1.85759 0,0 5.23514,1.86158 5.23514,1.86158 0,0 5.78312,2.3186 5.78312,2.3186 0,0 5.0985,2.26352 5.0985,2.26352 0,0 5.02649,2.43293 5.02649,2.43293 0,0 -0.19984,0.36611 -0.19984,0.36611 0,0 -0.19983,0.3661 -0.19983,0.3661 0,0 -0.19984,0.3661 -0.19984,0.3661 0,0 -0.19984,0.36611 -0.19984,0.36611 0,0 -0.19983,0.3661 -0.19983,0.3661 0,0 -0.19983,0.3661 -0.19983,0.3661 0,0 -0.19984,0.36612 -0.19984,0.36612 0,0 -0.19983,0.3661 -0.19983,0.3661 0,0 -0.19983,0.3661 -0.19983,0.3661 0,0 -0.19983,0.36611 -0.19983,0.36611 0,0 -0.19984,0.3661 -0.19984,0.3661 0,0 -0.19983,0.3661 -0.19983,0.3661 0,0 -0.19984,0.3661 -0.19984,0.3661 0,0 -0.19983,0.3661 -0.19983,0.3661 0,0 -0.19984,0.36612 -0.19984,0.36612 0,0 -0.19983,0.3661 -0.19983,0.3661 0,0 -0.19983,0.3661 -0.19983,0.3661 0,0 -0.19984,0.36611 -0.19984,0.36611 0,0 -0.19984,0.3661 -0.19984,0.3661 0,0 -0.19983,0.3661 -0.19983,0.3661 0,0 -0.19984,0.36611 -0.19984,0.36611 0,0 -0.19982,0.3661 -0.19982,0.3661 0,0 -0.19984,0.36611 -0.19984,0.36611 0,0 -0.19984,0.3661 -0.19984,0.3661 0,0 -0.19983,0.3661 -0.19983,0.3661 0,0 -0.19983,0.3661 -0.19983,0.3661 0,0 -0.19984,0.36612 -0.19984,0.36612 0,0 -0.19983,0.3661 -0.19983,0.3661 0,0 -0.19984,0.36611 -0.19984,0.36611 0,0 -0.19983,0.3661 -0.19983,0.3661 0,0 -0.19984,0.3661 -0.19984,0.3661 0,0 -0.19983,0.36611 -0.19983,0.36611 0,0 -0.19983,0.36609 -0.19983,0.36609 0,0 -0.19983,0.36611 -0.19983,0.36611 0,0 -0.19985,0.36611 -0.19985,0.36611 0,0 -0.19983,0.3661 -0.19983,0.3661 0,0 -0.19983,0.3661 -0.19983,0.3661 0,0 -0.19983,0.36611 -0.19983,0.36611 0,0 -0.19984,0.3661 -0.19984,0.3661 0,0 -0.19983,0.3661 -0.19983,0.3661 0,0 -0.19983,0.36612 -0.19983,0.36612 0,0 -0.19984,0.36609 -0.19984,0.36609 0,0 -0.19983,0.36611 -0.19983,0.36611 0,0 -0.19984,0.3661 -0.19984,0.3661 0,0 -0.19983,0.36611 -0.19983,0.36611 0,0 -0.19984,0.3661 -0.19984,0.3661 0,0 -0.19983,0.3661 -0.19983,0.3661 0,0 -0.19984,0.36611 -0.19984,0.36611 0,0 -0.19983,0.36611 -0.19983,0.36611 0,0 -0.19983,0.3661 -0.19983,0.3661 0,0 -0.19984,0.3661 -0.19984,0.3661 0,0 -0.19983,0.36611 -0.19983,0.36611 0,0 -0.19983,0.3661 -0.19983,0.3661 0,0 -0.19983,0.3661 -0.19983,0.3661 0,0 -0.19984,0.3661 -0.19984,0.3661 0,0 -0.19984,0.36611 -0.19984,0.36611 0,0 -0.19984,0.36611 -0.19984,0.36611 0,0 -0.19983,0.3661 -0.19983,0.3661 0,0 -0.19983,0.3661 -0.19983,0.3661 0,0 -0.19984,0.36612 -0.19984,0.36612 0,0 -0.19983,0.36609 -0.19983,0.36609 0,0 -0.19983,0.3661 -0.19983,0.3661 0,0 -0.19983,0.36612 -0.19983,0.36612 0,0 -0.19984,0.3661 -0.19984,0.3661 0,0 -0.19983,0.3661 -0.19983,0.3661 0,0 -0.19984,0.3661 -0.19984,0.3661 0,0 -0.19983,0.3661 -0.19983,0.3661 0,0 -0.19984,0.3661 -0.19984,0.3661 0,0 -0.19983,0.36612 -0.19983,0.36612 0,0 -0.19983,0.3661 -0.19983,0.3661 0,0 -0.19984,0.36611 -0.19984,0.36611 0,0 -0.19984,0.3661 -0.19984,0.3661 0,0 -0.19983,0.3661 -0.19983,0.3661 0,0 -0.19984,0.3661 -0.19984,0.3661 0,0 -0.19982,0.36611 -0.19982,0.36611 0,0 -0.19984,0.36611 -0.19984,0.36611 0,0 -0.19984,0.3661 -0.19984,0.3661 0,0 -0.19983,0.3661 -0.19983,0.3661 0,0 -0.19983,0.3661 -0.19983,0.3661 0,0 -0.19984,0.36611 -0.19984,0.36611 0,0 -0.19983,0.3661 -0.19983,0.3661 0,0 -0.19983,0.3661 -0.19983,0.3661 0,0 -0.19984,0.36611 -0.19984,0.36611 0,0 -0.19984,0.36611 -0.19984,0.36611 0,0 -0.19983,0.3661 -0.19983,0.3661 0,0 -0.19983,0.36611 -0.19983,0.36611 0,0 -0.19983,0.3661 -0.19983,0.3661 0,0 -0.19984,0.3661 -0.19984,0.3661 0,0 -0.19984,0.36611 -0.19984,0.36611 0,0 -0.19983,0.36609 -0.19983,0.36609 0,0 -0.19983,0.36612 -0.19983,0.36612 0,0 -0.19983,0.3661 -0.19983,0.3661 0,0 -0.19984,0.3661 -0.19984,0.3661 0,0 -0.19983,0.36611 -0.19983,0.36611 0,0 -0.19983,0.3661 -0.19983,0.3661 0,0 -0.19984,0.3661 -0.19984,0.3661 0,0 -0.19984,0.36611 -0.19984,0.36611 0,0 -0.19983,0.36611 -0.19983,0.36611 0,0 -0.19984,0.3661 -0.19984,0.3661 0,0 -0.19983,0.3661 -0.19983,0.3661 0,0 -0.19984,0.3661 -0.19984,0.3661 0,0 -0.19983,0.36611 -0.19983,0.36611 0,0 -0.19983,0.3661 -0.19983,0.3661 0,0 -0.19983,0.3661 -0.19983,0.3661 0,0 -0.19984,0.36612 -0.19984,0.36612 0,0 -0.19983,0.3661 -0.19983,0.3661 0,0 -0.19983,0.3661 -0.19983,0.3661 0,0 -0.19984,0.3661 -0.19984,0.3661 0,0 -0.19984,0.3661 -0.19984,0.3661 0,0 -0.19983,0.36611 -0.19983,0.36611 0,0 -0.19983,0.36611 -0.19983,0.36611 0,0 -0.19984,0.36609 -0.19984,0.36609 0,0 -0.19984,0.36612 -0.19984,0.36612 0,0 -0.19983,0.3661 -0.19983,0.3661 0,0 -0.19983,0.3661 -0.19983,0.3661 0,0 -0.19983,0.36611 -0.19983,0.36611 0,0 -0.19984,0.36611 -0.19984,0.36611 0,0 -0.19983,0.36609 -0.19983,0.36609 0,0 -0.19984,0.36611 -0.19984,0.36611 0,0 -0.19983,0.3661 -0.19983,0.3661 0,0 -0.19983,0.36611 -0.19983,0.36611 0,0 -0.19984,0.3661 -0.19984,0.3661 0,0 -0.19983,0.3661 -0.19983,0.3661 0,0 -0.19983,0.3661 -0.19983,0.3661 0,0 -0.19985,0.36612 -0.19985,0.36612 0,0 -0.19983,0.3661 -0.19983,0.3661 0,0 -0.19983,0.36611 -0.19983,0.36611 0,0 -0.19983,0.3661 -0.19983,0.3661 0,0 -3.62848,-2.16479 -3.62848,-2.16479 0,0 -3.70698,-2.03759 -3.70698,-2.03759 0,0 -3.19242,-1.60905 -3.19242,-1.60905 0,0 -3.87017,-1.75805 -3.87017,-1.75805 0,0 -3.35076,-1.37885 -3.35076,-1.37885 0,0 -3.42665,-1.29628 -3.42665,-1.29628 0,0 -4.09288,-1.31805 -4.09288,-1.31805 0,0 -3.57813,-1.05572 -3.57813,-1.05572 0,0 -4.2109,-1.0319 -4.2109,-1.0319 0,0 -3.71681,-0.81377 -3.71681,-0.81377 0,0 -4.05278,-0.70304 -4.05278,-0.70304 0,0 -3.85018,-0.60287 -3.85018,-0.60287 0,0 -4.87834,-0.50476 -4.87834,-0.50476 0,0 -3.9358,-0.31583 -3.9358,-0.31583 0,0 -3.99519,-0.22879 -3.99519,-0.22879 0,0 -4.05258,-0.14061 -4.05258,-0.14061 0,0 -4.90419,0.0509 -4.90419,0.0509 0,0 -4.10273,0.1164 -4.10273,0.1164 0,0 -4.1492,0.19714 -4.1492,0.19714 0,0 -4.88992,0.37817 -4.88992,0.37817 0,0 -4.17905,0.42871 -4.17905,0.42871 0,0 -4.2163,0.50112 -4.2163,0.50112 0,0 -4.25105,0.57342 -4.25105,0.57342 0,0 -4.83805,0.80513 -4.83805,0.80513 0,0 -4.26037,0.77161 -4.26037,0.77161 0,0 -4.28782,0.83558 -4.28782,0.83558 0,0 -4.7909,1.05 -4.7909,1.05 0,0 -4.28704,1.0107 -4.28704,1.0107 0,0 -4.30867,1.06703 -4.30867,1.06703 0,0 -4.73837,1.26621 -4.73837,1.26621 0,0 -4.30082,1.22134 -4.30082,1.22134 0,0 -4.31788,1.2709 -4.31788,1.2709 0,0 -4.68336,1.45666 -4.68336,1.45666 0,0 -4.30527,1.40676 -4.30527,1.40676 0,0 -4.31869,1.45052 -4.31869,1.45052 0,0 -4.62797,1.6241 -4.62797,1.6241 0,0 -4.30306,1.57018 -4.30306,1.57018 0,0 -4.31358,1.60894 -4.31358,1.60894 0,0 -4.57371,1.77118 -4.57371,1.77118 0,0 -4.16582,1.68582 -4.16582,1.68582 0,0 -4.5345,1.86899 -4.5345,1.86899 0,0 -4.5345,1.869 -4.5345,1.869 0,0 -4.06343,1.753 -4.06343,1.753 0,0 -4.48464,1.9857 -4.48464,1.9857 0,0 -4.48465,1.9857 -4.48465,1.9857 0,0 -4.088,1.8703 -4.088,1.8703 0,0 -4.43817,2.0876 -4.43817,2.0876 0,0 -4.43817,2.0876 -4.43817,2.0876 0,0 -4.10697,1.9761 -4.10697,1.9761 0,0 -4.39547,2.1762 -4.39547,2.1762 0,0 -4.39545,2.1761 -4.39545,2.1761 0,0 -4.12156,2.0719 -4.12156,2.0719 0,0 -4.35686,2.2525 -4.35686,2.2525 0,0 -4.35684,2.2524 -4.35684,2.2524 0,0 -4.13292,2.1588 -4.13292,2.1588 0,0 -4.32257,2.3176 -4.32257,2.3176 0,0 -4.32256,2.3176 -4.32256,2.3176 0,0 -4.14226,2.2373 -4.14226,2.2373 0,0 -4.29286,2.3722 -4.29286,2.3722 0,0 -4.29283,2.3722 -4.29283,2.3722 0,0 -4.15086,2.3075 -4.15086,2.3075 0,0 -4.26794,2.4168 -4.26794,2.4168 0,0 -4.26793,2.4168 -4.26793,2.4168 0,0 -4.12228,2.3521 -4.12228,2.3521 0,0 -4.24099,2.4637 -4.24099,2.4637 0,0 -4.241,2.4637 -4.241,2.4637 0,0 -4.24099,2.4638 -4.24099,2.4638 0,0 -4.241,2.4637 -4.241,2.4637 0,0 -4.24099,2.4637 -4.24099,2.4637 0,0 -4.15304,2.4358 -4.15304,2.4358 0,0 -4.22419,2.4925 -4.22419,2.4925 0,0 -4.2242,2.4925 -4.2242,2.4925 0,0 -4.22421,2.4924 -4.22421,2.4924 0,0 -4.22421,2.4925 -4.22421,2.4925 0,0 -4.27325,2.5144 -4.27325,2.5144 0,0 -4.23503,2.474 -4.23503,2.474 0,0 -4.23502,2.474 -4.23502,2.474 0,0 -4.23503,2.474 -4.23503,2.474 0,0 -4.23503,2.474 -4.23503,2.474 0,0 -4.36748,2.5229 -4.36748,2.5229 0,0 -4.26521,2.4216 -4.26521,2.4216 0,0 -4.40832,2.4889 -4.40832,2.4889 0,0 -4.29992,2.3593 -4.29992,2.3593 0,0 -4.49667,2.4568 -4.49667,2.4568 0,0 -4.34851,2.2684 -4.34851,2.2684 0,0 -4.62505,2.3843 -4.62505,2.3843 0,0 -4.41382,2.1383 -4.41382,2.1383 0,0 -4.80351,2.2322 -4.80351,2.2322 0,0 -4.91896,2.0042 -4.91896,2.0042 0,0 -5.35784,1.8833 -5.35784,1.8833 0,0 -5.06538,1.452 -5.06538,1.452 0,0 -5.11254,1.2085 -5.11254,1.2085 0,0 -5.1468,0.9707 -5.1468,0.9707 0,0 -5.16902,0.7397 -5.16902,0.7397 0,0 -5.46697,0.5214 -5.46697,0.5214 0,0 -5.16783,0.2611 -5.16783,0.2611 0,0 -5.15883,0.061 -5.15883,0.061 0,0 -5.14296,-0.13 -5.14296,-0.13 0,0 -5.33221,-0.3411 -5.33221,-0.3411 0,0 -5.07811,-0.5114 -5.07811,-0.5114 0,0 -5.0471,-0.6695 -5.0471,-0.6695 0,0 -5.01322,-0.8186 -5.01322,-0.8186 0,0 -5.12566,-0.9983 -5.12566,-0.9983 0,0 -4.92385,-1.1122 -4.92385,-1.1122 0,0 -4.88491,-1.2345 -4.88491,-1.2345 0,0 -4.89386,-1.3962 -4.89386,-1.3962 0,0 -4.90755,-1.4685 -4.90755,-1.4685 0,0 -4.64845,-1.564 -4.64845,-1.564 0,0 -4.802151,-1.6989 -4.802151,-1.6989 0,0 -4.59356,-1.7185 -4.59356,-1.7185 0,0 -4.69874,-1.903 -4.69874,-1.903 0,0 -4.6527,-1.9573 -4.6527,-1.9573 0,0 -4.48425,-1.9865 -4.48425,-1.9865 0,0 -4.55474,-2.1316 -4.55474,-2.1316 0,0 -4.51207,-2.1829 -4.51207,-2.1829 0,0 -4.37904,-2.2089 -4.37904,-2.2089 0,0 -4.41933,-2.3349 -4.41933,-2.3349 0,0 -4.37833,-2.3847 -4.37833,-2.3847 0,0 -4.33688,-2.4377 -4.33688,-2.4377 0,0 -4.23344,-2.4766 -4.23344,-2.4766 0,0 -4.24969,-2.5687 -4.24969,-2.5687 0,0 -4.21671,-2.6515 -4.21671,-2.6515 0,0 -4.1256,-2.6521 -4.1256,-2.6521 0,0 -4.1619,-2.7426 -4.1619,-2.7426 0,0 -4.04678,-2.771 -4.04678,-2.771 0,0 -4.05649,-2.8638 -4.05649,-2.8638 0,0 -4.00175,-2.9172 -4.00175,-2.9172 0,0 -3.92193,-3.0041 -3.92193,-3.0041 0,0 0,0 0,0"
           id="path6725"
           inkscape:transform-center-x="-294.80083"
           inkscape:transform-center-y="-37.23503"
           inkscape:connector-curvature="0" />
      </g>
    </clipPath>
    <linearGradient
       gradientUnits="userSpaceOnUse"
       y2="458.8812"
       x2="493.85062"
       y1="30.813768"
       x1="237.39151"
       id="linearGradient3309"
       xlink:href="#linearGradient3303"
       inkscape:collect="always" />
    <linearGradient
       gradientUnits="userSpaceOnUse"
       y2="1036.5653"
       x2="597.79425"
       y1="1110.6523"
       x1="239.24597"
       id="linearGradient3319"
       xlink:href="#linearGradient3325"
       inkscape:collect="always" />
    <linearGradient
       gradientUnits="userSpaceOnUse"
       y2="159.52"
       x2="481.45667"
       y1="484.62244"
       x1="481.45667"
       id="linearGradient3347"
       xlink:href="#linearGradient3341"
       inkscape:collect="always" />
    <linearGradient
       inkscape:collect="always"
       xlink:href="#linearGradient3049"
       id="linearGradient3055"
       x1="523.2204"
       y1="632.37567"
       x2="-232.69539"
       y2="849.92523"
       gradientUnits="userSpaceOnUse" />
    <linearGradient
       inkscape:collect="always"
       xlink:href="#linearGradient3049"
       id="linearGradient3057"
       x1="523.2204"
       y1="632.37567"
       x2="-232.69539"
       y2="849.92523"
       gradientUnits="userSpaceOnUse" />
    <linearGradient
       inkscape:collect="always"
       xlink:href="#linearGradient3049"
       id="linearGradient3059"
       x1="523.2204"
       y1="632.37567"
       x2="-232.69539"
       y2="849.92523"
       gradientUnits="userSpaceOnUse" />
  </defs>
  <metadata
     id="metadata3220">
    <rdf:RDF>
      <cc:Work
         rdf:about="">
        <dc:format>image/svg+xml</dc:format>
        <dc:type
           rdf:resource="http://purl.org/dc/dcmitype/StillImage" />
        <dc:title></dc:title>
      </cc:Work>
    </rdf:RDF>
  </metadata>
  <g
     id="layer1"
     inkscape:groupmode="layer"
     inkscape:label="Layer 1"
     transform="translate(0,-1.7625e-4)">
    <rect
       y="-8.2747936"
       x="-3.8135183"
       height="539.61285"
       width="938.12549"
       id="rect2531"
       style="fill:url(#linearGradient3309);fill-opacity:1;fill-rule:nonzero;stroke:#b900fe;stroke-width:2.01399994;stroke-linecap:round;stroke-linejoin:round;stroke-miterlimit:4;stroke-opacity:1;stroke-dasharray:none" />
    <path
       sodipodi:nodetypes="ccccc"
       clip-path="url(#clipPath6715)"
       id="rect6696"
       d="m 125.2252,805.68048 528.07269,0 0,388.21422 -528.07269,0 0,-388.21422 z"
       style="fill:url(#linearGradient3319);fill-opacity:1;fill-rule:evenodd;stroke:none"
       transform="matrix(1.7040545,0.290745,-0.2205239,1.9218102,5.4648779,-1882.5362)"
       inkscape:connector-curvature="0" />
    <rect
       y="70.806381"
       x="18.312256"
       height="460.76178"
       width="106.09989"
       id="rect3253"
       style="fill:url(#linearGradient3774);fill-opacity:1;fill-rule:evenodd;stroke:#000000;stroke-width:1.19143914999999990;stroke-linecap:butt;stroke-linejoin:miter;stroke-miterlimit:4;stroke-opacity:1;stroke-dasharray:14.29726928000000000, 14.29726928000000000;stroke-dashoffset:0" />
    <rect
       y="70.945656"
       x="141.64511"
       height="70.786621"
       width="637.88245"
       id="rect6071"
       style="fill:url(#linearGradient6073);fill-opacity:1;fill-rule:evenodd;stroke:none" />
    <rect
       inkscape:export-ydpi="78.153847"
       inkscape:export-xdpi="78.153847"
       inkscape:export-filename="C:\Users\Yuzhi\Comp SCI AP\workspace\finale\finale\resources\graphics\bg2.png"
       y="142.35918"
       x="142.05356"
       height="371.81802"
       width="635.90417"
       id="rect3339"
       style="fill:url(#linearGradient3347);fill-opacity:1;fill-rule:nonzero;stroke:none" />
    <flowRoot
       xml:space="preserve"
       id="flowRoot3235-0"
       style="font-size:12px;font-style:normal;font-variant:normal;font-weight:normal;font-stretch:normal;text-align:start;line-height:125%;writing-mode:lr-tb;text-anchor:start;fill:#000000;fill-opacity:1;stroke:#ffffff;stroke-width:0.59971136;stroke-linecap:butt;stroke-linejoin:miter;stroke-miterlimit:4;stroke-opacity:1;stroke-dasharray:none;font-family:Xirod"
       transform="matrix(1.1816708,0,0,1.1816708,348.52647,-0.5864228)"><flowRegion
         id="flowRegion3237-9"><rect
           id="rect3239-4"
           width="877.8573"
           height="59.064278"
           x="11.581231"
           y="5.0187893"
           style="stroke:#ffffff;stroke-width:0.59971136;stroke-miterlimit:4;stroke-opacity:1;stroke-dasharray:none" /></flowRegion><flowPara
         id="flowPara3113"
         style="font-size:18.6177063px">FINALE</flowPara></flowRoot>  </g>
  <g
     style="display:none"
     inkscape:label="mockup-placeholders"
     id="layer2"
     inkscape:groupmode="layer"
     transform="translate(0,-1.7625e-4)">
    <flowRoot
       transform="translate(738.62918,166.93337)"
       style="font-size:12px;font-style:normal;font-variant:normal;font-weight:normal;font-stretch:normal;text-align:end;line-height:125%;writing-mode:lr-tb;text-anchor:end;fill:#000000;fill-opacity:1;stroke:none;font-family:Xirod"
       id="flowRoot3830"
       xml:space="preserve"><flowRegion
         id="flowRegion3832"><rect
           style="text-align:end;text-anchor:end"
           y="68.715561"
           x="23.162462"
           height="39.376186"
           width="98.440468"
           id="rect3834" /></flowRegion><flowPara
         id="flowPara3836">01</flowPara></flowRoot>    <rect
       y="141.04759"
       x="35.001221"
       height="71.11898"
       width="70.84095"
       id="rect3229"
       style="fill:#0000ff;fill-rule:evenodd;stroke:#000000;stroke-width:0.13630107px;stroke-linecap:butt;stroke-linejoin:miter;stroke-opacity:1" />
    <rect
       y="247.5258"
       x="35.458263"
       height="71.11898"
       width="70.84095"
       id="rect3231"
       style="fill:#0000ff;fill-rule:evenodd;stroke:#000000;stroke-width:0.13630107px;stroke-linecap:butt;stroke-linejoin:miter;stroke-opacity:1" />
    <rect
       y="354.07788"
       x="35.458263"
       height="71.11898"
       width="70.84095"
       id="rect3233"
       style="fill:#0000ff;fill-rule:evenodd;stroke:#000000;stroke-width:0.13630107px;stroke-linecap:butt;stroke-linejoin:miter;stroke-opacity:1" />
    <flowRoot
       transform="translate(762.23562,96.067233)"
       style="font-size:12px;font-style:normal;font-variant:normal;font-weight:normal;font-stretch:normal;text-align:end;line-height:125%;writing-mode:lr-tb;text-anchor:end;fill:#000000;fill-opacity:1;stroke:none;font-family:Xirod"
       id="flowRoot3806"
       xml:space="preserve"><flowRegion
         id="flowRegion3808"><rect
           style="text-align:end;text-anchor:end"
           y="68.715561"
           x="23.162462"
           height="39.376186"
           width="98.440468"
           id="rect3810" /></flowRegion><flowPara
         id="flowPara3812">00000</flowPara></flowRoot>    <flowRoot
       transform="translate(757.46609,237.79952)"
       style="font-size:12px;font-style:normal;font-variant:normal;font-weight:normal;font-stretch:normal;text-align:end;line-height:125%;writing-mode:lr-tb;text-anchor:end;fill:#000000;fill-opacity:1;stroke:none;font-family:Xirod"
       id="flowRoot4229"
       xml:space="preserve"><flowRegion
         id="flowRegion4231"><rect
           style="text-align:end;text-anchor:end"
           y="68.715561"
           x="23.162462"
           height="39.376186"
           width="98.440468"
           id="rect4233" /></flowRegion><flowPara
         id="flowPara4235">00:00</flowPara></flowRoot>    <flowRoot
       transform="translate(742.47781,308.66566)"
       style="font-size:12px;font-style:normal;font-variant:normal;font-weight:normal;font-stretch:normal;text-align:end;line-height:125%;writing-mode:lr-tb;text-anchor:end;fill:#000000;fill-opacity:1;stroke:none;font-family:Xirod"
       id="flowRoot4237"
       xml:space="preserve"><flowRegion
         id="flowRegion4239"><rect
           style="text-align:end;text-anchor:end"
           y="68.715561"
           x="23.162462"
           height="39.376186"
           width="98.440468"
           id="rect4241" /></flowRegion><flowPara
         id="flowPara4243">00</flowPara></flowRoot>  </g>
  <g
     style="display:inline"
     sodipodi:insensitive="true"
     inkscape:label="grid"
     id="layer3"
     inkscape:groupmode="layer"
     transform="translate(0,-1.7625e-4)">
    <g
       style="fill:none;stroke:#002341;stroke-width:0.99212599;stroke-miterlimit:4;stroke-opacity:1;stroke-dasharray:none"
       id="g4579">
      <path
         id="path4574"
         d="m 177.16535,141.73228 0,354.33071"
         style="fill:none;stroke:#002341;stroke-width:0.99212599;stroke-linecap:butt;stroke-linejoin:miter;stroke-miterlimit:4;stroke-opacity:1;stroke-dasharray:none"
         inkscape:connector-curvature="0" />
      <path
         id="path4253"
         d="m 212.59843,141.73228 0,354.33071"
         style="fill:none;stroke:#002341;stroke-width:0.99212599;stroke-linecap:butt;stroke-linejoin:miter;stroke-miterlimit:4;stroke-opacity:1;stroke-dasharray:none"
         inkscape:connector-curvature="0" />
      <path
         id="path4255"
         d="m 248.0315,141.73228 0,354.33071"
         style="fill:none;stroke:#002341;stroke-width:0.99212599;stroke-linecap:butt;stroke-linejoin:miter;stroke-miterlimit:4;stroke-opacity:1;stroke-dasharray:none"
         inkscape:connector-curvature="0" />
      <path
         id="path4257"
         d="m 283.46457,141.73228 0,354.33071"
         style="fill:none;stroke:#002341;stroke-width:0.99212599;stroke-linecap:butt;stroke-linejoin:miter;stroke-miterlimit:4;stroke-opacity:1;stroke-dasharray:none"
         inkscape:connector-curvature="0" />
      <path
         id="path4259"
         d="m 318.89764,141.73228 0,354.33071"
         style="fill:none;stroke:#002341;stroke-width:0.99212599;stroke-linecap:butt;stroke-linejoin:miter;stroke-miterlimit:4;stroke-opacity:1;stroke-dasharray:none"
         inkscape:connector-curvature="0" />
      <path
         id="path4261"
         d="m 354.33071,141.73228 0,354.33071"
         style="fill:none;stroke:#002341;stroke-width:0.99212599;stroke-linecap:butt;stroke-linejoin:miter;stroke-miterlimit:4;stroke-opacity:1;stroke-dasharray:none"
         inkscape:connector-curvature="0" />
      <path
         id="path4263"
         d="m 389.76378,141.73228 0,354.33071"
         style="fill:none;stroke:#002341;stroke-width:0.99212599;stroke-linecap:butt;stroke-linejoin:miter;stroke-miterlimit:4;stroke-opacity:1;stroke-dasharray:none"
         inkscape:connector-curvature="0" />
      <path
         id="path4267"
         d="m 425.19685,141.73228 0,354.33071"
         style="fill:none;stroke:#002341;stroke-width:0.99212599;stroke-linecap:butt;stroke-linejoin:miter;stroke-miterlimit:4;stroke-opacity:1;stroke-dasharray:none"
         inkscape:connector-curvature="0" />
      <path
         id="path4269"
         d="m 496.06299,141.73228 0,354.33071"
         style="fill:none;stroke:#002341;stroke-width:0.99212599;stroke-linecap:butt;stroke-linejoin:miter;stroke-miterlimit:4;stroke-opacity:1;stroke-dasharray:none"
         inkscape:connector-curvature="0" />
      <path
         id="path4271"
         d="m 460.62992,141.73228 0,354.33071"
         style="fill:none;stroke:#002341;stroke-width:0.99212599;stroke-linecap:butt;stroke-linejoin:miter;stroke-miterlimit:4;stroke-opacity:1;stroke-dasharray:none"
         inkscape:connector-curvature="0" />
      <path
         id="path4273"
         d="m 531.49606,141.73228 0,354.33071"
         style="fill:none;stroke:#002341;stroke-width:0.99212599;stroke-linecap:butt;stroke-linejoin:miter;stroke-miterlimit:4;stroke-opacity:1;stroke-dasharray:none"
         inkscape:connector-curvature="0" />
      <path
         id="path4275"
         d="m 566.92913,141.73228 0,354.33071"
         style="fill:none;stroke:#002341;stroke-width:0.99212599;stroke-linecap:butt;stroke-linejoin:miter;stroke-miterlimit:4;stroke-opacity:1;stroke-dasharray:none"
         inkscape:connector-curvature="0" />
      <path
         id="path4277"
         d="m 602.3622,141.73228 0,354.33071"
         style="fill:none;stroke:#002341;stroke-width:0.99212599;stroke-linecap:butt;stroke-linejoin:miter;stroke-miterlimit:4;stroke-opacity:1;stroke-dasharray:none"
         inkscape:connector-curvature="0" />
      <path
         id="path4279"
         d="m 637.79528,141.73228 0,354.33071"
         style="fill:none;stroke:#002341;stroke-width:0.99212599;stroke-linecap:butt;stroke-linejoin:miter;stroke-miterlimit:4;stroke-opacity:1;stroke-dasharray:none"
         inkscape:connector-curvature="0" />
      <path
         id="path4281"
         d="m 673.22835,141.73228 0,354.33071"
         style="fill:none;stroke:#002341;stroke-width:0.99212599;stroke-linecap:butt;stroke-linejoin:miter;stroke-miterlimit:4;stroke-opacity:1;stroke-dasharray:none"
         inkscape:connector-curvature="0" />
      <path
         id="path4283"
         d="m 708.66142,141.73228 0,354.33071"
         style="fill:none;stroke:#002341;stroke-width:0.99212599;stroke-linecap:butt;stroke-linejoin:miter;stroke-miterlimit:4;stroke-opacity:1;stroke-dasharray:none"
         inkscape:connector-curvature="0" />
      <path
         id="path4285"
         d="m 744.09449,141.73228 0,354.33071"
         style="fill:none;stroke:#002341;stroke-width:0.99212599;stroke-linecap:butt;stroke-linejoin:miter;stroke-miterlimit:4;stroke-opacity:1;stroke-dasharray:none"
         inkscape:connector-curvature="0" />
      <path
         id="path6049"
         d="m 780.32756,177.16535 -638.59528,1e-5"
         style="fill:none;stroke:#002341;stroke-width:0.99212599;stroke-linecap:butt;stroke-linejoin:miter;stroke-miterlimit:4;stroke-opacity:1;stroke-dasharray:none"
         inkscape:connector-curvature="0" />
      <path
         style="fill:none;stroke:#002341;stroke-width:4.53543329;stroke-linecap:square;stroke-linejoin:miter;stroke-miterlimit:4;stroke-opacity:1;stroke-dasharray:none"
         d="m 780.32756,141.73227 -638.59528,1e-5"
         id="path4568"
         inkscape:connector-curvature="0" />
      <path
         id="path4289"
         d="m 780.32756,212.59841 -638.59528,1e-5"
         style="fill:none;stroke:#002341;stroke-width:0.99212599;stroke-linecap:butt;stroke-linejoin:miter;stroke-miterlimit:4;stroke-opacity:1;stroke-dasharray:none"
         inkscape:connector-curvature="0" />
      <path
         id="path4291"
         d="m 780.32756,248.03148 -638.59528,1e-5"
         style="fill:none;stroke:#002341;stroke-width:0.99212599;stroke-linecap:butt;stroke-linejoin:miter;stroke-miterlimit:4;stroke-opacity:1;stroke-dasharray:none"
         inkscape:connector-curvature="0" />
      <path
         id="path4293"
         d="m 779.52756,283.46456 -638.59528,10e-6"
         style="fill:none;stroke:#002341;stroke-width:0.99212599;stroke-linecap:butt;stroke-linejoin:miter;stroke-miterlimit:4;stroke-opacity:1;stroke-dasharray:none"
         inkscape:connector-curvature="0" />
      <path
         id="path4295"
         d="m 780.32756,318.89762 -638.59528,10e-6"
         style="fill:none;stroke:#002341;stroke-width:0.99212599;stroke-linecap:butt;stroke-linejoin:miter;stroke-miterlimit:4;stroke-opacity:1;stroke-dasharray:none"
         inkscape:connector-curvature="0" />
      <path
         id="path4297"
         d="m 780.32756,354.33069 -638.59528,10e-6"
         style="fill:none;stroke:#002341;stroke-width:0.99212599;stroke-linecap:butt;stroke-linejoin:miter;stroke-miterlimit:4;stroke-opacity:1;stroke-dasharray:none"
         inkscape:connector-curvature="0" />
      <path
         id="path4299"
         d="m 780.32756,389.76377 -638.59528,10e-6"
         style="fill:none;stroke:#002341;stroke-width:0.99212599;stroke-linecap:butt;stroke-linejoin:miter;stroke-miterlimit:4;stroke-opacity:1;stroke-dasharray:none"
         inkscape:connector-curvature="0" />
      <path
         id="path4301"
         d="m 780.32756,425.19684 -638.59528,10e-6"
         style="fill:none;stroke:#002341;stroke-width:0.99212599;stroke-linecap:butt;stroke-linejoin:miter;stroke-miterlimit:4;stroke-opacity:1;stroke-dasharray:none"
         inkscape:connector-curvature="0" />
      <path
         id="path4303"
         d="m 780.32756,460.62991 -638.59528,1e-5"
         style="fill:none;stroke:#002341;stroke-width:0.99212599;stroke-linecap:butt;stroke-linejoin:miter;stroke-miterlimit:4;stroke-opacity:1;stroke-dasharray:none"
         inkscape:connector-curvature="0" />
      <path
         sodipodi:nodetypes="cccc"
         id="rect4576"
         d="m 779.61473,141.73228 0,354.25119 -637.88245,0 0,-354.25119"
         style="fill:none;stroke:#002341;stroke-linecap:butt;stroke-linejoin:miter;stroke-opacity:1"
         inkscape:connector-curvature="0" />
    </g>
  </g>
</svg>
